<?xml version="1.0" encoding="UTF-8" standalone="no"?>
<!DOCTYPE svg PUBLIC "-//W3C//DTD SVG 1.1//EN" "http://www.w3.org/Graphics/SVG/1.1/DTD/svg11.dtd">
<svg width="100%" height="100%" viewBox="0 0 189 49" version="1.1" xmlns="http://www.w3.org/2000/svg" xmlns:xlink="http://www.w3.org/1999/xlink" xml:space="preserve" style="fill-rule:evenodd;clip-rule:evenodd;stroke-linejoin:round;stroke-miterlimit:1.41421;">
    <g transform="matrix(1,0,0,1,-1.686,-1.096)">
        <path d="M24.228,12.096C23.865,13.025 23.191,13.807 22.205,14.442C21.219,15.077 20.193,15.394 19.128,15.394C18.629,15.394 18.221,15.286 17.904,15.071C17.587,14.856 17.428,14.578 17.428,14.238C17.428,13.898 17.564,13.535 17.836,13.15C18.085,13.241 18.369,13.286 18.686,13.286C19.57,13.286 20.386,12.98 21.134,12.368C21.882,11.756 22.256,11.019 22.256,10.158C22.256,8.843 21.383,8.186 19.638,8.186C17.326,8.186 15.071,8.979 12.872,10.566C10.673,12.153 8.9,14.21 7.551,16.737C6.202,19.264 5.528,21.831 5.528,24.438C5.528,28.473 7.364,30.49 11.036,30.49C13.325,30.49 15.751,29.606 18.312,27.838C20.873,26.07 22.573,24.155 23.412,22.092C23.843,22.387 24.058,22.783 24.058,23.282C24.058,24.302 23.333,25.566 21.882,27.073C20.431,28.58 18.607,29.782 16.408,30.677C14.209,31.572 11.965,32.02 9.676,32.02C4.349,32.02 1.686,29.538 1.686,24.574C1.686,22.693 2.105,20.726 2.944,18.675C3.783,16.624 4.916,14.72 6.344,12.963C7.772,11.206 9.557,9.761 11.699,8.628C13.841,7.495 15.955,6.928 18.04,6.928C20.125,6.928 21.723,7.285 22.834,7.999C23.945,8.713 24.5,9.625 24.5,10.736C24.5,11.144 24.409,11.597 24.228,12.096Z" style="fill:rgb(109,170,133);fill-rule:nonzero;"/>
        <path d="M38.134,17.4L39.834,17.434L40.174,17.434C39.426,18.046 38.508,19.593 37.42,22.075C36.332,24.557 35.788,26.365 35.788,27.498C35.788,28.087 35.992,28.382 36.4,28.382C37.715,28.382 39.392,26.444 41.432,22.568C41.523,22.409 41.602,22.33 41.67,22.33C41.806,22.33 41.874,22.54 41.874,22.959C41.874,23.378 41.761,23.781 41.534,24.166C38.746,28.858 36.411,31.204 34.53,31.204C33.306,31.204 32.694,30.263 32.694,28.382C32.694,26.977 32.932,25.594 33.408,24.234C30.824,28.813 28.433,31.102 26.234,31.102C24.715,31.102 23.956,30.059 23.956,27.974C23.956,26.387 24.302,24.778 24.993,23.146C25.684,21.514 26.676,20.126 27.968,18.981C29.26,17.836 30.677,17.264 32.218,17.264C32.943,17.264 33.623,17.428 34.258,17.757C34.893,18.086 35.312,18.613 35.516,19.338C35.765,18.817 36.151,18.363 36.672,17.978C37.193,17.593 37.681,17.4 38.134,17.4ZM35.312,19.644C35.085,18.919 34.553,18.556 33.714,18.556C32.218,18.556 30.767,19.593 29.362,21.667C27.957,23.741 27.254,25.594 27.254,27.226C27.254,27.929 27.526,28.28 28.07,28.28C28.659,28.28 29.351,27.912 30.144,27.175C30.937,26.438 31.651,25.571 32.286,24.574C33.691,22.353 34.7,20.709 35.312,19.644Z" style="fill:rgb(109,170,133);fill-rule:nonzero;"/>
        <path d="M49.422,17.332L51.156,17.366L51.496,17.366C51.156,17.615 50.674,18.352 50.051,19.576C49.428,20.8 48.963,21.724 48.657,22.347C48.351,22.97 48.011,23.809 47.637,24.863C47.263,25.917 47.076,26.773 47.076,27.43C47.076,28.087 47.303,28.416 47.756,28.416C48.051,28.393 48.464,28.184 48.997,27.787C49.53,27.39 49.972,26.971 50.323,26.529C50.674,26.087 51.06,25.52 51.479,24.829C51.898,24.138 52.261,23.537 52.567,23.027C52.873,22.517 53.049,22.262 53.094,22.262C53.253,22.262 53.332,22.472 53.332,22.891C53.332,23.31 53.219,23.713 52.992,24.098C52.017,25.707 51.213,26.943 50.578,27.804C49.943,28.665 49.178,29.453 48.283,30.167C47.388,30.881 46.577,31.238 45.852,31.238C44.56,31.238 43.914,30.286 43.914,28.382C43.914,27.09 44.163,25.628 44.662,23.996C45.161,22.364 45.897,20.789 46.872,19.27C46.079,19.905 45.285,20.222 44.492,20.222C44.243,20.222 43.982,20.165 43.71,20.052C42.101,23.225 41.234,24.812 41.109,24.812C40.984,24.812 40.922,24.625 40.922,24.251C40.922,23.877 41.064,23.356 41.347,22.687C41.63,22.018 41.936,21.378 42.265,20.766C42.594,20.154 42.769,19.814 42.792,19.746C41.976,19.338 41.568,18.681 41.568,17.774C41.568,17.321 41.71,16.913 41.993,16.55C42.276,16.187 42.667,16.006 43.166,16.006C43.665,16.006 44.073,16.165 44.39,16.482C44.345,16.618 44.322,16.822 44.322,17.094C44.322,17.706 44.543,18.188 44.985,18.539C45.427,18.89 45.965,19.066 46.6,19.066C46.781,19.066 46.917,19.055 47.008,19.032C47.801,17.899 48.606,17.332 49.422,17.332Z" style="fill:rgb(109,170,133);fill-rule:nonzero;"/>
        <path d="M70.944,8.764C70.196,9.308 69.216,10.832 68.003,13.337C66.79,15.842 65.719,18.482 64.79,21.259C63.861,24.036 63.396,26.047 63.396,27.294C63.396,28.019 63.589,28.382 63.974,28.382C64.359,28.382 64.841,28.133 65.419,27.634C65.997,27.135 66.411,26.716 66.66,26.376C66.909,26.036 67.244,25.52 67.663,24.829C68.082,24.138 68.445,23.537 68.751,23.027C69.057,22.517 69.233,22.262 69.278,22.262C69.437,22.262 69.516,22.477 69.516,22.908C69.493,23.701 68.553,25.356 66.694,27.872C66.082,28.688 65.345,29.447 64.484,30.15C63.623,30.853 62.841,31.204 62.138,31.204C60.937,31.204 60.336,30.309 60.336,28.518C60.336,27.203 60.665,25.515 61.322,23.452C60.279,25.515 59.089,27.305 57.752,28.824C56.415,30.343 55.077,31.102 53.74,31.102C52.221,31.102 51.462,30.059 51.462,27.974C51.462,26.387 51.808,24.778 52.499,23.146C53.19,21.514 54.182,20.126 55.474,18.981C56.766,17.836 58.166,17.264 59.673,17.264C61.18,17.264 62.217,17.763 62.784,18.76C63.419,17.513 64.07,16.074 64.739,14.442C65.408,12.81 65.85,11.75 66.065,11.263C66.28,10.776 66.439,10.419 66.541,10.192C66.643,9.965 66.773,9.75 66.932,9.546C67.181,9.229 67.482,9.03 67.833,8.951C68.184,8.872 68.751,8.826 69.533,8.815C70.315,8.804 70.785,8.787 70.944,8.764ZM62.614,19.168C62.342,18.76 61.889,18.556 61.254,18.556C60.234,18.556 59.208,19.072 58.177,20.103C57.146,21.134 56.318,22.324 55.695,23.673C55.072,25.022 54.76,26.206 54.76,27.226C54.76,27.929 55.032,28.28 55.576,28.28C57.412,28.28 59.758,25.243 62.614,19.168Z" style="fill:rgb(109,170,133);fill-rule:nonzero;"/>
        <path d="M81.824,17.4L83.524,17.434L83.864,17.434C83.116,18.046 82.198,19.593 81.11,22.075C80.022,24.557 79.478,26.365 79.478,27.498C79.478,28.087 79.682,28.382 80.09,28.382C81.405,28.382 83.082,26.444 85.122,22.568C85.213,22.409 85.292,22.33 85.36,22.33C85.496,22.33 85.564,22.54 85.564,22.959C85.564,23.378 85.451,23.781 85.224,24.166C82.436,28.858 80.101,31.204 78.22,31.204C76.996,31.204 76.384,30.263 76.384,28.382C76.384,26.977 76.622,25.594 77.098,24.234C74.514,28.813 72.123,31.102 69.924,31.102C68.405,31.102 67.646,30.059 67.646,27.974C67.646,26.387 67.992,24.778 68.683,23.146C69.374,21.514 70.366,20.126 71.658,18.981C72.95,17.836 74.367,17.264 75.908,17.264C76.633,17.264 77.313,17.428 77.948,17.757C78.583,18.086 79.002,18.613 79.206,19.338C79.455,18.817 79.841,18.363 80.362,17.978C80.883,17.593 81.371,17.4 81.824,17.4ZM79.002,19.644C78.775,18.919 78.243,18.556 77.404,18.556C75.908,18.556 74.457,19.593 73.052,21.667C71.647,23.741 70.944,25.594 70.944,27.226C70.944,27.929 71.216,28.28 71.76,28.28C72.349,28.28 73.041,27.912 73.834,27.175C74.627,26.438 75.341,25.571 75.976,24.574C77.381,22.353 78.39,20.709 79.002,19.644Z" style="fill:rgb(109,170,133);fill-rule:nonzero;"/>
        <path d="M107.834,24.166C106.995,25.571 106.23,26.744 105.539,27.685C104.848,28.626 104.06,29.447 103.176,30.15C102.292,30.853 101.487,31.204 100.762,31.204C99.425,31.204 98.756,30.433 98.756,28.892C98.756,27.101 99.47,24.551 100.898,21.242C101.215,20.403 101.374,19.825 101.374,19.508C101.374,19.055 101.17,18.828 100.762,18.828C100.513,18.828 100.082,18.975 99.47,19.27C98.858,19.565 98.274,20.007 97.719,20.596C97.164,21.185 96.716,21.729 96.376,22.228C96.036,22.727 95.662,23.475 95.254,24.472C94.846,25.469 94.574,26.172 94.438,26.58C93.781,28.62 93.339,30.093 93.112,31L89.78,31C90.959,27.736 91.769,25.537 92.211,24.404C92.653,23.271 92.919,22.568 93.01,22.296L93.316,21.344C93.565,20.619 93.69,20.018 93.69,19.542C93.69,19.066 93.475,18.828 93.044,18.828C92.681,18.828 92.188,18.987 91.565,19.304C90.942,19.621 90.335,20.086 89.746,20.698C89.157,21.31 88.664,22.018 88.267,22.823C87.87,23.628 87.553,24.325 87.315,24.914C87.077,25.503 86.833,26.223 86.584,27.073C86.335,27.923 86.114,28.614 85.921,29.147C85.728,29.68 85.53,30.297 85.326,31L82.028,31C82.277,30.048 82.549,29.198 82.844,28.45L85.054,22.806C85.961,20.539 86.414,18.885 86.414,17.842C86.414,17.615 86.391,17.468 86.346,17.4L87.774,17.4C88.545,17.4 89.043,17.474 89.27,17.621C89.497,17.768 89.61,17.967 89.61,18.216C89.61,18.465 89.474,19.043 89.202,19.95C91.197,18.137 93.191,17.23 95.186,17.23C96.387,17.23 96.988,17.729 96.988,18.726C96.988,19.157 96.863,19.689 96.614,20.324C98.677,18.261 100.796,17.23 102.972,17.23C104.151,17.23 104.74,17.729 104.74,18.726C104.74,19.179 104.661,19.61 104.502,20.018C104.343,20.426 104.139,20.953 103.89,21.599C103.641,22.245 103.437,22.778 103.278,23.197C103.119,23.616 102.938,24.132 102.734,24.744C102.303,25.991 102.088,26.914 102.088,27.515C102.088,28.116 102.275,28.416 102.649,28.416C103.023,28.416 103.493,28.167 104.06,27.668C104.627,27.169 105.052,26.739 105.335,26.376C105.618,26.013 105.97,25.498 106.389,24.829C106.808,24.16 107.165,23.577 107.46,23.078C107.755,22.579 107.925,22.33 107.97,22.33C108.106,22.33 108.174,22.54 108.174,22.959C108.174,23.378 108.061,23.781 107.834,24.166Z" style="fill:rgb(109,170,133);fill-rule:nonzero;"/>
        <path d="M122.964,22.636C123.032,22.5 123.1,22.432 123.168,22.432C123.304,22.432 123.372,22.602 123.372,22.942C123.372,24.03 122.936,24.931 122.063,25.645C121.19,26.359 120.374,26.716 119.615,26.716C118.856,26.716 118.204,26.501 117.66,26.07C116.844,27.679 115.875,28.949 114.753,29.878C113.631,30.807 112.186,31.272 110.418,31.272C109.285,31.272 108.361,30.926 107.647,30.235C106.933,29.544 106.576,28.49 106.576,27.073C106.576,25.656 106.899,24.194 107.545,22.687C108.191,21.18 109.166,19.882 110.469,18.794C111.772,17.706 113.229,17.162 114.838,17.162C117.535,17.162 118.884,18.59 118.884,21.446C118.884,22.534 118.646,23.679 118.17,24.88C118.51,25.356 118.997,25.594 119.632,25.594C120.811,25.594 121.921,24.608 122.964,22.636ZM117.286,20.528C117.195,19.327 116.651,18.726 115.654,18.726C114.09,18.726 112.56,20.245 111.064,23.282C110.248,24.959 109.84,26.478 109.84,27.838C109.84,29.198 110.429,29.912 111.608,29.98C112.583,29.98 113.484,29.464 114.311,28.433C115.138,27.402 115.835,26.263 116.402,25.016C115.631,24.359 115.246,23.531 115.246,22.534C115.246,21.922 115.41,21.435 115.739,21.072C116.068,20.709 116.515,20.528 117.082,20.528L117.286,20.528Z" style="fill:rgb(109,170,133);fill-rule:nonzero;"/>
        <path d="M137.924,24.166C137.085,25.571 136.32,26.744 135.629,27.685C134.938,28.626 134.15,29.447 133.266,30.15C132.382,30.853 131.577,31.204 130.852,31.204C129.515,31.204 128.846,30.467 128.846,28.994C128.846,27.521 129.696,24.563 131.396,20.12C131.487,19.916 131.532,19.701 131.532,19.474C131.532,18.998 131.232,18.76 130.631,18.76C130.03,18.76 129.441,18.947 128.863,19.321C128.285,19.695 127.758,20.228 127.282,20.919C126.806,21.61 126.375,22.313 125.99,23.027C125.605,23.741 125.248,24.563 124.919,25.492C124.59,26.421 124.33,27.198 124.137,27.821C123.944,28.444 123.752,29.113 123.559,29.827C123.366,30.541 123.259,30.932 123.236,31L119.938,31C119.938,30.524 120.935,27.793 122.93,22.806C123.746,20.471 124.154,18.839 124.154,17.91C124.154,17.683 124.12,17.513 124.052,17.4L125.48,17.4C126.273,17.4 126.783,17.479 127.01,17.638C127.237,17.797 127.35,18.012 127.35,18.284C127.35,18.556 127.225,19.111 126.976,19.95C128.88,18.137 130.795,17.23 132.722,17.23C134.014,17.23 134.66,17.819 134.66,18.998C134.66,19.383 134.603,19.769 134.49,20.154C134.377,20.539 134.093,21.31 133.64,22.466C132.643,25.005 132.144,26.705 132.144,27.566C132.144,28.11 132.348,28.382 132.756,28.382C133.051,28.382 133.464,28.178 133.997,27.77C134.53,27.362 134.972,26.937 135.323,26.495C135.674,26.053 136.06,25.498 136.479,24.829C136.898,24.16 137.255,23.577 137.55,23.078C137.845,22.579 138.015,22.33 138.06,22.33C138.196,22.33 138.264,22.54 138.264,22.959C138.264,23.378 138.151,23.781 137.924,24.166Z" style="fill:rgb(109,170,133);fill-rule:nonzero;"/>
        <path d="M150.232,22.296C150.368,22.296 150.436,22.511 150.436,22.942C150.436,23.373 150.249,23.905 149.875,24.54C149.501,25.175 149.206,25.656 148.991,25.985C148.776,26.314 148.407,26.841 147.886,27.566C147.365,28.291 146.911,28.813 146.526,29.13C146.141,29.447 145.653,29.821 145.064,30.252C144.067,30.977 142.769,31.34 141.171,31.34C139.573,31.34 138.417,30.938 137.703,30.133C136.989,29.328 136.632,28.28 136.632,26.988C136.632,24.608 137.476,22.426 139.165,20.443C140.854,18.46 142.843,17.468 145.132,17.468C146.152,17.468 146.968,17.734 147.58,18.267C148.192,18.8 148.498,19.434 148.498,20.171C148.498,20.908 148.294,21.548 147.886,22.092C147.478,22.636 147.013,22.908 146.492,22.908C145.472,22.908 144.962,22.489 144.962,21.65C144.962,21.378 145.245,21.117 145.812,20.868C146.039,20.777 146.243,20.607 146.424,20.358C146.605,20.109 146.696,19.78 146.696,19.372C146.696,18.783 146.379,18.488 145.744,18.488C144.384,18.488 143.035,19.474 141.698,21.446C140.361,23.418 139.692,25.328 139.692,27.175C139.692,29.022 140.497,29.946 142.106,29.946C144.35,29.946 146.537,28.212 148.668,24.744C149.099,24.064 149.456,23.486 149.739,23.01C150.022,22.534 150.187,22.296 150.232,22.296Z" style="fill:rgb(109,170,133);fill-rule:nonzero;"/>
        <path d="M164.988,24.166C162.2,28.858 159.843,31.204 157.916,31.204C156.579,31.204 155.91,30.433 155.91,28.892C155.91,27.101 156.624,24.551 158.052,21.242C158.369,20.403 158.528,19.825 158.528,19.508C158.528,19.055 158.324,18.828 157.916,18.828C157.644,18.828 157.185,18.987 156.539,19.304C155.893,19.621 155.275,20.086 154.686,20.698C154.097,21.31 153.604,22.018 153.207,22.823C152.81,23.628 152.493,24.325 152.255,24.914C152.017,25.503 151.773,26.223 151.524,27.073C151.275,27.923 151.054,28.614 150.861,29.147C150.668,29.68 150.47,30.297 150.266,31L146.968,31C147.58,29.436 148.458,26.937 149.603,23.503C150.748,20.069 151.728,17.372 152.544,15.411C153.36,13.45 154.159,11.796 154.941,10.447C155.723,9.098 156.618,7.971 157.627,7.064C158.636,6.157 159.701,5.704 160.823,5.704C161.945,5.704 162.506,6.237 162.506,7.302C162.506,8.05 162.2,9.036 161.588,10.26C160.273,12.844 158.075,15.836 154.992,19.236C156.216,18.352 157.185,17.774 157.899,17.502C158.613,17.23 159.299,17.094 159.956,17.094C161.248,17.094 161.894,17.661 161.894,18.794C161.894,19.247 161.815,19.667 161.656,20.052C161.497,20.437 161.322,20.879 161.129,21.378C160.936,21.877 160.778,22.285 160.653,22.602C160.528,22.919 160.364,23.35 160.16,23.894C159.956,24.438 159.797,24.903 159.684,25.288C159.389,26.24 159.242,26.999 159.242,27.566C159.242,28.133 159.435,28.416 159.82,28.416C161.18,28.416 162.88,26.444 164.92,22.5C164.988,22.341 165.073,22.262 165.175,22.262C165.277,22.262 165.328,22.472 165.328,22.891C165.328,23.31 165.215,23.735 164.988,24.166ZM160.874,6.554C160.081,6.554 159.044,7.812 157.763,10.328C156.482,12.844 155.23,15.734 154.006,18.998C157.111,15.349 159.231,12.357 160.364,10.022C160.999,8.594 161.316,7.659 161.316,7.217C161.316,6.775 161.169,6.554 160.874,6.554Z" style="fill:rgb(109,170,133);fill-rule:nonzero;"/>
        <path d="M177.67,17.4L179.37,17.434L179.71,17.434C178.962,18.046 178.044,19.593 176.956,22.075C175.868,24.557 175.324,26.365 175.324,27.498C175.324,28.087 175.528,28.382 175.936,28.382C177.251,28.382 178.928,26.444 180.968,22.568C181.059,22.409 181.138,22.33 181.206,22.33C181.342,22.33 181.41,22.54 181.41,22.959C181.41,23.378 181.297,23.781 181.07,24.166C178.282,28.858 175.947,31.204 174.066,31.204C172.842,31.204 172.23,30.263 172.23,28.382C172.23,26.977 172.468,25.594 172.944,24.234C170.36,28.813 167.969,31.102 165.77,31.102C164.251,31.102 163.492,30.059 163.492,27.974C163.492,26.387 163.838,24.778 164.529,23.146C165.22,21.514 166.212,20.126 167.504,18.981C168.796,17.836 170.213,17.264 171.754,17.264C172.479,17.264 173.159,17.428 173.794,17.757C174.429,18.086 174.848,18.613 175.052,19.338C175.301,18.817 175.687,18.363 176.208,17.978C176.729,17.593 177.217,17.4 177.67,17.4ZM174.848,19.644C174.621,18.919 174.089,18.556 173.25,18.556C171.754,18.556 170.303,19.593 168.898,21.667C167.493,23.741 166.79,25.594 166.79,27.226C166.79,27.929 167.062,28.28 167.606,28.28C168.195,28.28 168.887,27.912 169.68,27.175C170.473,26.438 171.187,25.571 171.822,24.574C173.227,22.353 174.236,20.709 174.848,19.644Z" style="fill:rgb(109,170,133);fill-rule:nonzero;"/>
        <path d="M189.57,12.912L189.434,12.912C188.981,12.912 188.544,13.105 188.125,13.49C187.706,13.875 187.405,14.272 187.224,14.68C186.635,14.453 186.34,14.045 186.34,13.456C186.34,12.867 186.612,12.272 187.156,11.671C187.7,11.07 188.221,10.77 188.72,10.77C189.219,10.77 189.593,10.883 189.842,11.11C190.091,11.337 190.216,11.626 190.216,11.977C190.216,12.328 190.001,12.64 189.57,12.912ZM184.946,17.4L186.646,17.434L186.986,17.434C186.623,17.706 186.142,18.443 185.541,19.644C184.94,20.845 184.493,21.752 184.198,22.364C183.903,22.976 183.569,23.803 183.195,24.846C182.821,25.889 182.634,26.739 182.634,27.396C182.634,28.053 182.849,28.382 183.28,28.382C183.575,28.382 183.988,28.184 184.521,27.787C185.054,27.39 185.49,26.971 185.83,26.529C186.17,26.087 186.55,25.526 186.969,24.846C187.388,24.166 187.751,23.577 188.057,23.078C188.363,22.579 188.539,22.33 188.584,22.33C188.72,22.33 188.788,22.54 188.788,22.959C188.788,23.378 188.675,23.781 188.448,24.166C187.609,25.571 186.844,26.744 186.153,27.685C185.462,28.626 184.674,29.447 183.79,30.15C182.906,30.853 182.101,31.204 181.376,31.204C180.107,31.204 179.472,30.32 179.472,28.552C179.472,25.809 180.413,22.772 182.294,19.44C183.087,18.08 183.971,17.4 184.946,17.4Z" style="fill:rgb(109,170,133);fill-rule:nonzero;"/>
        <path d="M82.904,1.832L86.488,1.832C86.221,2.099 85.757,2.301 85.096,2.44C84.435,2.579 83.688,2.688 82.856,2.768C82.024,2.848 81.48,2.915 81.224,2.968C80.083,3.235 79.512,3.917 79.512,5.016C79.181,4.675 79.016,4.307 79.016,3.912C79.016,2.525 80.312,1.832 82.904,1.832ZM87.304,1.832L88.456,1.832C87.965,2.301 87.467,3.584 86.96,5.68C86.453,7.776 86.2,9.395 86.2,10.536C86.2,11.347 86.349,11.907 86.648,12.216C86.776,12.355 86.936,12.424 87.128,12.424C87.32,12.424 87.523,12.355 87.736,12.216L87.832,12.36C87.683,12.573 87.416,12.757 87.032,12.912C86.648,13.067 86.269,13.144 85.896,13.144C85.341,13.144 84.963,12.947 84.76,12.552C84.557,12.157 84.44,11.629 84.408,10.968C84.408,10.424 84.477,9.72 84.616,8.856L80.952,8.856C79.363,10.541 78.115,11.923 77.208,13L75.608,13C76.611,12.083 78.168,10.579 80.28,8.488C83,5.779 84.787,3.901 85.64,2.856C85.853,2.6 86.013,2.421 86.12,2.32C86.227,2.219 86.389,2.112 86.608,2C86.827,1.888 87.059,1.832 87.304,1.832ZM85.656,4.088C84.44,5.229 83.107,6.552 81.656,8.056L84.728,8.056C84.92,7 85.229,5.677 85.656,4.088Z" style="fill:rgb(166,207,182);fill-rule:nonzero;"/>
        <path d="M96.504,9.784C96.109,10.445 95.749,10.997 95.424,11.44C95.099,11.883 94.728,12.269 94.312,12.6C93.896,12.931 93.517,13.096 93.176,13.096C92.547,13.096 92.232,12.749 92.232,12.056C92.232,11.363 92.632,9.971 93.432,7.88C93.475,7.784 93.496,7.683 93.496,7.576C93.496,7.352 93.355,7.24 93.072,7.24C92.789,7.24 92.512,7.328 92.24,7.504C91.968,7.68 91.72,7.931 91.496,8.256C91.272,8.581 91.069,8.912 90.888,9.248C90.707,9.584 90.539,9.971 90.384,10.408C90.229,10.845 90.107,11.211 90.016,11.504C89.925,11.797 89.835,12.112 89.744,12.448C89.653,12.784 89.603,12.968 89.592,13L88.04,13C88.04,12.776 88.509,11.491 89.448,9.144C89.832,8.045 90.024,7.277 90.024,6.84C90.024,6.733 90.008,6.653 89.976,6.6L90.648,6.6C91.021,6.6 91.261,6.637 91.368,6.712C91.475,6.787 91.528,6.888 91.528,7.016C91.528,7.144 91.469,7.405 91.352,7.8C92.248,6.947 93.149,6.52 94.056,6.52C94.664,6.52 94.968,6.797 94.968,7.352C94.968,7.533 94.941,7.715 94.888,7.896C94.835,8.077 94.701,8.44 94.488,8.984C94.019,10.179 93.784,10.979 93.784,11.384C93.784,11.64 93.88,11.768 94.072,11.768C94.211,11.768 94.405,11.672 94.656,11.48C94.907,11.288 95.115,11.088 95.28,10.88C95.445,10.672 95.627,10.411 95.824,10.096C96.021,9.781 96.189,9.507 96.328,9.272C96.467,9.037 96.547,8.92 96.568,8.92C96.632,8.92 96.664,9.019 96.664,9.216C96.664,9.413 96.611,9.603 96.504,9.784Z" style="fill:rgb(166,207,182);fill-rule:nonzero;"/>
        <path d="M103.48,9.784C103.085,10.445 102.725,10.997 102.4,11.44C102.075,11.883 101.704,12.269 101.288,12.6C100.872,12.931 100.493,13.096 100.152,13.096C99.523,13.096 99.208,12.749 99.208,12.056C99.208,11.363 99.608,9.971 100.408,7.88C100.451,7.784 100.472,7.683 100.472,7.576C100.472,7.352 100.331,7.24 100.048,7.24C99.765,7.24 99.488,7.328 99.216,7.504C98.944,7.68 98.696,7.931 98.472,8.256C98.248,8.581 98.045,8.912 97.864,9.248C97.683,9.584 97.515,9.971 97.36,10.408C97.205,10.845 97.083,11.211 96.992,11.504C96.901,11.797 96.811,12.112 96.72,12.448C96.629,12.784 96.579,12.968 96.568,13L95.016,13C95.016,12.776 95.485,11.491 96.424,9.144C96.808,8.045 97,7.277 97,6.84C97,6.733 96.984,6.653 96.952,6.6L97.624,6.6C97.997,6.6 98.237,6.637 98.344,6.712C98.451,6.787 98.504,6.888 98.504,7.016C98.504,7.144 98.445,7.405 98.328,7.8C99.224,6.947 100.125,6.52 101.032,6.52C101.64,6.52 101.944,6.797 101.944,7.352C101.944,7.533 101.917,7.715 101.864,7.896C101.811,8.077 101.677,8.44 101.464,8.984C100.995,10.179 100.76,10.979 100.76,11.384C100.76,11.64 100.856,11.768 101.048,11.768C101.187,11.768 101.381,11.672 101.632,11.48C101.883,11.288 102.091,11.088 102.256,10.88C102.421,10.672 102.603,10.411 102.8,10.096C102.997,9.781 103.165,9.507 103.304,9.272C103.443,9.037 103.523,8.92 103.544,8.92C103.608,8.92 103.64,9.019 103.64,9.216C103.64,9.413 103.587,9.603 103.48,9.784Z" style="fill:rgb(166,207,182);fill-rule:nonzero;"/>
        <path d="M109.304,8.84C109.368,8.84 109.4,8.944 109.4,9.152C109.4,9.36 109.315,9.608 109.144,9.896C108.973,10.184 108.805,10.456 108.64,10.712C108.475,10.968 108.253,11.267 107.976,11.608C107.699,11.949 107.427,12.221 107.16,12.424C106.488,12.915 105.813,13.16 105.136,13.16C104.459,13.16 103.912,12.987 103.496,12.64C103.08,12.293 102.872,11.763 102.872,11.048C102.872,9.96 103.272,8.952 104.072,8.024C104.872,7.096 105.805,6.632 106.872,6.632C107.352,6.632 107.736,6.757 108.024,7.008C108.312,7.259 108.456,7.56 108.456,7.912C108.456,8.509 108.173,8.989 107.608,9.352C107.043,9.715 106.376,9.896 105.608,9.896C105.16,9.896 104.829,9.837 104.616,9.72C104.413,10.264 104.312,10.744 104.312,11.16C104.312,12.056 104.691,12.504 105.448,12.504C105.896,12.504 106.357,12.331 106.832,11.984C107.307,11.637 107.712,11.248 108.048,10.816C108.384,10.384 108.765,9.763 109.192,8.952C109.235,8.877 109.272,8.84 109.304,8.84ZM107.608,7.576C107.608,7.267 107.459,7.112 107.16,7.112C106.744,7.112 106.28,7.368 105.768,7.88C105.256,8.392 105,8.808 105,9.128C105,9.341 105.203,9.448 105.608,9.448C106.013,9.448 106.437,9.251 106.88,8.856C107.323,8.461 107.565,8.035 107.608,7.576Z" style="fill:rgb(166,207,182);fill-rule:nonzero;"/>
        <path d="M121.176,8.904C121.24,8.904 121.272,9.003 121.272,9.2C121.272,9.397 121.24,9.549 121.176,9.656L120.824,10.248C120.301,11.112 119.875,11.688 119.544,11.976C119.181,12.307 118.829,12.472 118.488,12.472C118.04,12.472 117.741,12.264 117.592,11.848C117.155,12.285 116.712,12.613 116.264,12.832C115.816,13.051 115.315,13.16 114.76,13.16C114.205,13.16 113.813,13.072 113.584,12.896C113.355,12.72 113.24,12.427 113.24,12.016C113.24,11.605 113.304,11.139 113.432,10.616C113.763,9.208 114.317,7.552 115.096,5.648C115.875,3.744 116.488,2.733 116.936,2.616C117.075,2.584 117.328,2.565 117.696,2.56C118.064,2.555 118.285,2.547 118.36,2.536C117.944,2.845 117.381,3.752 116.672,5.256C115.963,6.76 115.427,8.205 115.064,9.592C116.216,7.555 117.304,6.536 118.328,6.536C119.053,6.536 119.416,7.056 119.416,8.096C119.416,9.136 118.979,10.195 118.104,11.272C118.115,11.453 118.168,11.597 118.264,11.704C118.36,11.811 118.483,11.864 118.632,11.864C118.781,11.864 118.944,11.797 119.12,11.664C119.296,11.531 119.429,11.413 119.52,11.312C119.611,11.211 119.731,11.064 119.88,10.872C120.029,10.68 120.205,10.421 120.408,10.096C120.611,9.771 120.784,9.491 120.928,9.256C121.072,9.021 121.155,8.904 121.176,8.904ZM117.624,7.896C117.592,7.885 117.509,7.88 117.376,7.88C117.243,7.88 116.992,8.019 116.624,8.296C116.256,8.573 115.827,9.104 115.336,9.888C114.845,10.672 114.6,11.317 114.6,11.824C114.6,12.331 114.755,12.584 115.064,12.584C115.629,12.584 116.237,12.037 116.888,10.944C117.539,9.851 117.864,8.989 117.864,8.36C117.864,8.093 117.784,7.939 117.624,7.896Z" style="fill:rgb(166,207,182);fill-rule:nonzero;"/>
        <path d="M126.584,3.24C126.2,4.019 125.613,4.901 124.824,5.888C124.035,6.875 123.325,7.667 122.696,8.264L122.44,9C122.312,9.373 122.189,9.827 122.072,10.36C121.955,10.893 121.901,11.272 121.912,11.496C121.912,11.816 122.029,11.976 122.264,11.976C122.499,11.976 122.779,11.843 123.104,11.576C123.429,11.309 123.667,11.077 123.816,10.88C123.965,10.683 124.139,10.424 124.336,10.104C124.533,9.784 124.704,9.507 124.848,9.272C124.992,9.037 125.075,8.92 125.096,8.92C125.16,8.92 125.192,9.019 125.192,9.216C125.192,9.413 125.139,9.603 125.032,9.784C124.445,10.776 123.971,11.475 123.608,11.88C122.872,12.691 122.115,13.096 121.336,13.096C120.739,13.096 120.44,12.691 120.44,11.88C120.44,11.08 120.797,9.683 121.512,7.688C121.565,7.517 121.688,7.16 121.88,6.616C122.072,6.072 122.237,5.648 122.376,5.344C122.515,5.04 122.701,4.637 122.936,4.136C123.171,3.635 123.397,3.235 123.616,2.936C123.835,2.637 124.077,2.333 124.344,2.024C124.867,1.405 125.432,1.096 126.04,1.096C126.648,1.096 126.952,1.373 126.952,1.928C126.952,2.355 126.829,2.792 126.584,3.24ZM126.248,1.496L126.136,1.496C125.485,1.496 124.445,3.448 123.016,7.352C124.477,5.635 125.475,4.227 126.008,3.128C126.307,2.456 126.456,2.016 126.456,1.808C126.456,1.6 126.387,1.496 126.248,1.496Z" style="fill:rgb(166,207,182);fill-rule:nonzero;"/>
        <path d="M132.152,9.064C132.184,9 132.216,8.968 132.248,8.968C132.312,8.968 132.344,9.048 132.344,9.208C132.344,9.72 132.139,10.144 131.728,10.48C131.317,10.816 130.933,10.984 130.576,10.984C130.219,10.984 129.912,10.883 129.656,10.68C129.272,11.437 128.816,12.035 128.288,12.472C127.76,12.909 127.08,13.128 126.248,13.128C125.715,13.128 125.28,12.965 124.944,12.64C124.608,12.315 124.44,11.819 124.44,11.152C124.44,10.485 124.592,9.797 124.896,9.088C125.2,8.379 125.659,7.768 126.272,7.256C126.885,6.744 127.571,6.488 128.328,6.488C129.597,6.488 130.232,7.16 130.232,8.504C130.232,9.016 130.12,9.555 129.896,10.12C130.056,10.344 130.285,10.456 130.584,10.456C131.139,10.456 131.661,9.992 132.152,9.064ZM129.48,8.072C129.437,7.507 129.181,7.224 128.712,7.224C127.976,7.224 127.256,7.939 126.552,9.368C126.168,10.157 125.976,10.872 125.976,11.512C125.976,12.152 126.253,12.488 126.808,12.52C127.267,12.52 127.691,12.277 128.08,11.792C128.469,11.307 128.797,10.771 129.064,10.184C128.701,9.875 128.52,9.485 128.52,9.016C128.52,8.728 128.597,8.499 128.752,8.328C128.907,8.157 129.117,8.072 129.384,8.072L129.48,8.072Z" style="fill:rgb(166,207,182);fill-rule:nonzero;"/>
        <path d="M138.616,6.6L139.256,6.6C139.032,6.749 138.787,7.075 138.52,7.576C138.253,8.077 138.027,8.571 137.84,9.056C137.653,9.541 137.411,10.205 137.112,11.048C136.451,12.947 135.875,14.208 135.384,14.832C134.893,15.456 134.341,15.936 133.728,16.272C133.115,16.608 132.557,16.776 132.056,16.776C130.989,16.776 130.456,16.44 130.456,15.768C130.456,15.501 130.539,15.251 130.704,15.016C130.869,14.781 131.091,14.664 131.368,14.664C131.645,14.664 131.832,14.776 131.928,15C131.821,15.064 131.739,15.176 131.68,15.336C131.621,15.496 131.592,15.648 131.592,15.792C131.592,15.936 131.648,16.056 131.76,16.152C131.872,16.248 132.019,16.296 132.2,16.296C132.712,16.296 133.176,16.037 133.592,15.52C134.008,15.003 134.36,14.403 134.648,13.72C134.723,13.539 135.235,12.131 136.184,9.496C134.925,11.864 133.741,13.048 132.632,13.048C131.907,13.048 131.544,12.557 131.544,11.576C131.544,10.829 131.707,10.072 132.032,9.304C132.357,8.536 132.824,7.883 133.432,7.344C134.04,6.805 134.707,6.536 135.432,6.536C135.763,6.536 136.08,6.611 136.384,6.76C136.688,6.909 136.883,7.155 136.968,7.496C137.128,7.155 137.317,6.92 137.536,6.792C137.755,6.664 138.115,6.6 138.616,6.6ZM136.904,7.64C136.797,7.299 136.547,7.128 136.152,7.128C135.448,7.128 134.763,7.621 134.096,8.608C133.429,9.595 133.096,10.472 133.096,11.24C133.096,11.56 133.224,11.72 133.48,11.72C133.757,11.72 134.083,11.547 134.456,11.2C134.829,10.853 135.165,10.445 135.464,9.976C136.424,8.493 136.904,7.715 136.904,7.64Z" style="fill:rgb(166,207,182);fill-rule:nonzero;"/>
        <path d="M145.592,6.6L146.232,6.6C146.008,6.749 145.763,7.075 145.496,7.576C145.229,8.077 145.003,8.571 144.816,9.056C144.629,9.541 144.387,10.205 144.088,11.048C143.427,12.947 142.851,14.208 142.36,14.832C141.869,15.456 141.317,15.936 140.704,16.272C140.091,16.608 139.533,16.776 139.032,16.776C137.965,16.776 137.432,16.44 137.432,15.768C137.432,15.501 137.515,15.251 137.68,15.016C137.845,14.781 138.067,14.664 138.344,14.664C138.621,14.664 138.808,14.776 138.904,15C138.797,15.064 138.715,15.176 138.656,15.336C138.597,15.496 138.568,15.648 138.568,15.792C138.568,15.936 138.624,16.056 138.736,16.152C138.848,16.248 138.995,16.296 139.176,16.296C139.688,16.296 140.152,16.037 140.568,15.52C140.984,15.003 141.336,14.403 141.624,13.72C141.699,13.539 142.211,12.131 143.16,9.496C141.901,11.864 140.717,13.048 139.608,13.048C138.883,13.048 138.52,12.557 138.52,11.576C138.52,10.829 138.683,10.072 139.008,9.304C139.333,8.536 139.8,7.883 140.408,7.344C141.016,6.805 141.683,6.536 142.408,6.536C142.739,6.536 143.056,6.611 143.36,6.76C143.664,6.909 143.859,7.155 143.944,7.496C144.104,7.155 144.293,6.92 144.512,6.792C144.731,6.664 145.091,6.6 145.592,6.6ZM143.88,7.64C143.773,7.299 143.523,7.128 143.128,7.128C142.424,7.128 141.739,7.621 141.072,8.608C140.405,9.595 140.072,10.472 140.072,11.24C140.072,11.56 140.2,11.72 140.456,11.72C140.733,11.72 141.059,11.547 141.432,11.2C141.805,10.853 142.141,10.445 142.44,9.976C143.4,8.493 143.88,7.715 143.88,7.64Z" style="fill:rgb(166,207,182);fill-rule:nonzero;"/>
        <path d="M150.552,3.832C150.029,4.195 149.443,5.123 148.792,6.616L150.408,6.616L150.424,6.632C150.424,6.685 150.365,6.779 150.248,6.912C150.131,7.045 150.029,7.112 149.944,7.112L148.568,7.112C147.725,9.203 147.304,10.547 147.304,11.144C147.304,11.549 147.432,11.752 147.688,11.752C148.061,11.752 148.499,11.432 149,10.792C149.117,10.653 149.272,10.419 149.464,10.088C149.955,9.299 150.211,8.904 150.232,8.904C150.296,8.904 150.328,8.989 150.328,9.16C150.317,9.565 149.875,10.355 149,11.528C148.712,11.912 148.365,12.269 147.96,12.6C147.555,12.931 147.187,13.096 146.856,13.096C146.248,13.096 145.944,12.669 145.944,11.816C145.944,11.101 146.115,10.28 146.456,9.352L146.456,9.336C146.253,9.709 146.08,9.987 145.936,10.168C145.792,10.349 145.709,10.44 145.688,10.44C145.645,10.44 145.624,10.373 145.624,10.24C145.624,10.107 145.696,9.891 145.84,9.592C145.984,9.293 146.181,8.904 146.432,8.424C146.683,7.944 146.888,7.507 147.048,7.112L145.976,7.112C145.944,7.112 145.928,7.088 145.928,7.04C145.928,6.992 145.968,6.909 146.048,6.792C146.128,6.675 146.189,6.616 146.232,6.616L147.448,6.616C148.216,4.771 148.995,3.848 149.784,3.848C150.243,3.848 150.499,3.843 150.552,3.832Z" style="fill:rgb(166,207,182);fill-rule:nonzero;"/>
        <path d="M28.72,37.912C29.125,37.837 29.592,37.779 30.12,37.736C30.648,37.693 31.131,37.672 31.568,37.672C32.059,37.672 32.525,37.725 32.968,37.832C33.411,37.939 33.8,38.115 34.136,38.36C34.472,38.605 34.741,38.925 34.944,39.32C35.147,39.715 35.248,40.195 35.248,40.76C35.248,41.635 35.008,42.344 34.528,42.888C34.048,43.432 33.44,43.795 32.704,43.976L33.472,44.568L36.256,49L34.704,49L31.616,44.168L30.048,43.928L30.048,49L28.72,49L28.72,37.912ZM31.6,38.824C31.461,38.824 31.317,38.824 31.168,38.824C31.019,38.824 30.875,38.829 30.736,38.84C30.597,38.851 30.467,38.861 30.344,38.872C30.221,38.883 30.123,38.899 30.048,38.92L30.048,43.048L31.296,43.048C32.032,43.048 32.64,42.867 33.12,42.504C33.6,42.141 33.84,41.576 33.84,40.808C33.84,40.232 33.643,39.757 33.248,39.384C32.853,39.011 32.304,38.824 31.6,38.824Z" style="fill:rgb(166,207,182);fill-rule:nonzero;"/>
        <path d="M37.072,43.4C37.072,41.533 37.467,40.101 38.256,39.104C39.045,38.107 40.171,37.608 41.632,37.608C42.421,37.608 43.104,37.747 43.68,38.024C44.256,38.301 44.733,38.693 45.112,39.2C45.491,39.707 45.771,40.315 45.952,41.024C46.133,41.733 46.224,42.525 46.224,43.4C46.224,45.267 45.827,46.699 45.032,47.696C44.237,48.693 43.104,49.192 41.632,49.192C40.853,49.192 40.179,49.053 39.608,48.776C39.037,48.499 38.563,48.107 38.184,47.6C37.805,47.093 37.525,46.485 37.344,45.776C37.163,45.067 37.072,44.275 37.072,43.4ZM38.48,43.4C38.48,44.019 38.541,44.605 38.664,45.16C38.787,45.715 38.976,46.203 39.232,46.624C39.488,47.045 39.816,47.381 40.216,47.632C40.616,47.883 41.088,48.008 41.632,48.008C42.624,48.008 43.403,47.632 43.968,46.88C44.533,46.128 44.816,44.968 44.816,43.4C44.816,42.792 44.755,42.208 44.632,41.648C44.509,41.088 44.317,40.597 44.056,40.176C43.795,39.755 43.464,39.419 43.064,39.168C42.664,38.917 42.187,38.792 41.632,38.792C40.651,38.792 39.88,39.168 39.32,39.92C38.76,40.672 38.48,41.832 38.48,43.4Z" style="fill:rgb(166,207,182);fill-rule:nonzero;"/>
        <path d="M55.648,48.536C55.328,48.781 54.923,48.952 54.432,49.048C53.941,49.144 53.419,49.192 52.864,49.192C52.192,49.192 51.563,49.077 50.976,48.848C50.389,48.619 49.877,48.269 49.44,47.8C49.003,47.331 48.656,46.731 48.4,46C48.144,45.269 48.016,44.403 48.016,43.4C48.016,42.355 48.157,41.467 48.44,40.736C48.723,40.005 49.096,39.408 49.56,38.944C50.024,38.48 50.544,38.141 51.12,37.928C51.696,37.715 52.283,37.608 52.88,37.608C53.52,37.608 54.043,37.643 54.448,37.712C54.853,37.781 55.2,37.875 55.488,37.992L55.168,39.16C54.656,38.915 53.925,38.792 52.976,38.792C52.539,38.792 52.107,38.872 51.68,39.032C51.253,39.192 50.872,39.453 50.536,39.816C50.2,40.179 49.931,40.653 49.728,41.24C49.525,41.827 49.424,42.547 49.424,43.4C49.424,44.168 49.52,44.84 49.712,45.416C49.904,45.992 50.168,46.472 50.504,46.856C50.84,47.24 51.235,47.528 51.688,47.72C52.141,47.912 52.635,48.008 53.168,48.008C53.648,48.008 54.067,47.96 54.424,47.864C54.781,47.768 55.083,47.645 55.328,47.496L55.648,48.536Z" style="fill:rgb(166,207,182);fill-rule:nonzero;"/>
        <path d="M59.696,43.816L58.944,43.816L58.944,49L57.616,49L57.616,37.8L58.944,37.8L58.944,43.016L59.664,42.792L63.424,37.8L64.96,37.8L61.216,42.616L60.544,43.144L61.36,43.784L65.456,49L63.776,49L59.696,43.816Z" style="fill:rgb(166,207,182);fill-rule:nonzero;"/>
        <path d="M66.656,38.456C66.656,38.211 66.733,38.019 66.888,37.88C67.043,37.741 67.243,37.672 67.488,37.672C67.787,37.672 68.029,37.765 68.216,37.952C68.403,38.139 68.496,38.419 68.496,38.792C68.496,39.144 68.445,39.448 68.344,39.704C68.243,39.96 68.12,40.176 67.976,40.352C67.832,40.528 67.68,40.669 67.52,40.776C67.36,40.883 67.221,40.957 67.104,41L66.704,40.456C66.949,40.328 67.141,40.168 67.28,39.976C67.419,39.784 67.488,39.533 67.488,39.224C67.445,39.235 67.387,39.24 67.312,39.24C67.109,39.24 66.949,39.168 66.832,39.024C66.715,38.88 66.656,38.691 66.656,38.456Z" style="fill:rgb(166,207,182);fill-rule:nonzero;"/>
        <path d="M72.496,41.672L71.632,40.056L71.568,40.056L71.728,41.672L71.728,49L70.48,49L70.48,37.624L71.184,37.624L76.544,45.096L77.376,46.632L77.456,46.632L77.28,45.096L77.28,37.8L78.528,37.8L78.528,49.176L77.824,49.176L72.496,41.672Z" style="fill:rgb(166,207,182);fill-rule:nonzero;"/>
        <path d="M80.528,38.456C80.528,38.211 80.605,38.019 80.76,37.88C80.915,37.741 81.115,37.672 81.36,37.672C81.659,37.672 81.901,37.765 82.088,37.952C82.275,38.139 82.368,38.419 82.368,38.792C82.368,39.144 82.317,39.448 82.216,39.704C82.115,39.96 81.992,40.176 81.848,40.352C81.704,40.528 81.552,40.669 81.392,40.776C81.232,40.883 81.093,40.957 80.976,41L80.576,40.456C80.821,40.328 81.013,40.168 81.152,39.976C81.291,39.784 81.36,39.533 81.36,39.224C81.317,39.235 81.259,39.24 81.184,39.24C80.981,39.24 80.821,39.168 80.704,39.024C80.587,38.88 80.528,38.691 80.528,38.456Z" style="fill:rgb(166,207,182);fill-rule:nonzero;"/>
        <path d="M84.352,37.912C84.757,37.837 85.224,37.779 85.752,37.736C86.28,37.693 86.763,37.672 87.2,37.672C87.691,37.672 88.157,37.725 88.6,37.832C89.043,37.939 89.432,38.115 89.768,38.36C90.104,38.605 90.373,38.925 90.576,39.32C90.779,39.715 90.88,40.195 90.88,40.76C90.88,41.635 90.64,42.344 90.16,42.888C89.68,43.432 89.072,43.795 88.336,43.976L89.104,44.568L91.888,49L90.336,49L87.248,44.168L85.68,43.928L85.68,49L84.352,49L84.352,37.912ZM87.232,38.824C87.093,38.824 86.949,38.824 86.8,38.824C86.651,38.824 86.507,38.829 86.368,38.84C86.229,38.851 86.099,38.861 85.976,38.872C85.853,38.883 85.755,38.899 85.68,38.92L85.68,43.048L86.928,43.048C87.664,43.048 88.272,42.867 88.752,42.504C89.232,42.141 89.472,41.576 89.472,40.808C89.472,40.232 89.275,39.757 88.88,39.384C88.485,39.011 87.936,38.824 87.232,38.824Z" style="fill:rgb(166,207,182);fill-rule:nonzero;"/>
        <path d="M92.704,43.4C92.704,41.533 93.099,40.101 93.888,39.104C94.677,38.107 95.803,37.608 97.264,37.608C98.053,37.608 98.736,37.747 99.312,38.024C99.888,38.301 100.365,38.693 100.744,39.2C101.123,39.707 101.403,40.315 101.584,41.024C101.765,41.733 101.856,42.525 101.856,43.4C101.856,45.267 101.459,46.699 100.664,47.696C99.869,48.693 98.736,49.192 97.264,49.192C96.485,49.192 95.811,49.053 95.24,48.776C94.669,48.499 94.195,48.107 93.816,47.6C93.437,47.093 93.157,46.485 92.976,45.776C92.795,45.067 92.704,44.275 92.704,43.4ZM94.112,43.4C94.112,44.019 94.173,44.605 94.296,45.16C94.419,45.715 94.608,46.203 94.864,46.624C95.12,47.045 95.448,47.381 95.848,47.632C96.248,47.883 96.72,48.008 97.264,48.008C98.256,48.008 99.035,47.632 99.6,46.88C100.165,46.128 100.448,44.968 100.448,43.4C100.448,42.792 100.387,42.208 100.264,41.648C100.141,41.088 99.949,40.597 99.688,40.176C99.427,39.755 99.096,39.419 98.696,39.168C98.296,38.917 97.819,38.792 97.264,38.792C96.283,38.792 95.512,39.168 94.952,39.92C94.392,40.672 94.112,41.832 94.112,43.4Z" style="fill:rgb(166,207,182);fill-rule:nonzero;"/>
        <path d="M110.736,49L104.112,49L104.112,37.8L105.44,37.8L105.44,47.816L110.736,47.816L110.736,49Z" style="fill:rgb(166,207,182);fill-rule:nonzero;"/>
        <path d="M119.008,49L112.384,49L112.384,37.8L113.712,37.8L113.712,47.816L119.008,47.816L119.008,49Z" style="fill:rgb(166,207,182);fill-rule:nonzero;"/>
        <path d="M126.688,45.496L127.072,47.192L127.088,47.192L127.504,45.464L130.208,37.8L131.536,37.8L127.296,49.176L126.704,49.176L122.384,37.8L123.84,37.8L126.688,45.496Z" style="fill:rgb(166,207,182);fill-rule:nonzero;"/>
        <path d="M132.864,37.8L138.96,37.8L138.96,38.984L134.192,38.984L134.192,42.648L138.56,42.648L138.56,43.832L134.192,43.832L134.192,47.816L139.04,47.816L139.04,49L132.864,49L132.864,37.8Z" style="fill:rgb(166,207,182);fill-rule:nonzero;"/>
        <path d="M145.216,43.416L148.976,43.416L148.976,48.344C148.805,48.472 148.6,48.589 148.36,48.696C148.12,48.803 147.864,48.893 147.592,48.968C147.32,49.043 147.037,49.099 146.744,49.136C146.451,49.173 146.165,49.192 145.888,49.192C145.173,49.192 144.517,49.077 143.92,48.848C143.323,48.619 142.805,48.267 142.368,47.792C141.931,47.317 141.589,46.715 141.344,45.984C141.099,45.253 140.976,44.392 140.976,43.4C140.976,42.365 141.125,41.48 141.424,40.744C141.723,40.008 142.112,39.408 142.592,38.944C143.072,38.48 143.611,38.141 144.208,37.928C144.805,37.715 145.403,37.608 146,37.608C146.64,37.608 147.168,37.643 147.584,37.712C148,37.781 148.352,37.875 148.64,37.992L148.304,39.16C147.792,38.915 147.061,38.792 146.112,38.792C145.664,38.792 145.219,38.869 144.776,39.024C144.333,39.179 143.936,39.437 143.584,39.8C143.232,40.163 142.944,40.637 142.72,41.224C142.496,41.811 142.384,42.536 142.384,43.4C142.384,44.189 142.475,44.872 142.656,45.448C142.837,46.024 143.091,46.501 143.416,46.88C143.741,47.259 144.133,47.541 144.592,47.728C145.051,47.915 145.552,48.008 146.096,48.008C146.779,48.008 147.36,47.875 147.84,47.608L147.84,44.488L145.216,44.168L145.216,43.416Z" style="fill:rgb(166,207,182);fill-rule:nonzero;"/>
        <path d="M156.56,45.896L152.432,45.896L151.312,49L150,49L154.24,37.624L154.848,37.624L159.104,49L157.712,49L156.56,45.896ZM152.864,44.744L156.16,44.744L154.912,41.336L154.512,39.64L154.496,39.64L154.096,41.368L152.864,44.744Z" style="fill:rgb(166,207,182);fill-rule:nonzero;"/>
        <path d="M162.608,41.672L161.744,40.056L161.68,40.056L161.84,41.672L161.84,49L160.592,49L160.592,37.624L161.296,37.624L166.656,45.096L167.488,46.632L167.568,46.632L167.392,45.096L167.392,37.8L168.64,37.8L168.64,49.176L167.936,49.176L162.608,41.672Z" style="fill:rgb(166,207,182);fill-rule:nonzero;"/>
    </g>
</svg>
