<?xml version="1.0" encoding="UTF-8"?>
<svg width="328px" height="373px" viewBox="0 0 328 373" version="1.1" xmlns="http://www.w3.org/2000/svg" xmlns:xlink="http://www.w3.org/1999/xlink">
    <!-- Generator: Sketch 45.1 (43504) - http://www.bohemiancoding.com/sketch -->
    <title>Group</title>
    <desc>Created with Sketch.</desc>
    <defs></defs>
    <g id="Page-1" stroke="none" stroke-width="1" fill="none" fill-rule="evenodd">
        <g id="Group">
            <path d="M175.996094,352.128906 C171.300781,317.058594 172.652344,301.220703 157.228516,289.273438 C141.804688,277.326172 97.3300781,276.001953 75.0117188,243.660156 C52.6933594,211.318359 41.7773437,130.572266 35.828125,97.2128906 C29.8789063,63.8535156 12.4960937,22.1699219 0.787109375,11.5820313 C48.328125,14.0390625 91.4257812,37.6621094 113.652344,59.4257812 C128.470052,73.9348958 142.995443,91.702474 157.228516,112.728516 C149.703776,135.134766 145.426432,149.184896 144.396484,154.878906 C142.851563,163.419922 141.435547,178.664063 149.332031,186.5 C157.228516,194.335938 169.462891,206.246094 175.996094,208.070313 C180.351562,209.286458 180.351562,227.336589 175.996094,262.220703 C184.341146,314.345703 184.341146,344.315104 175.996094,352.128906 Z M46.7871094,44.5820312 C83.34375,85.0410156 91.8515625,110.511719 98.0449219,135.6875 C106.856256,171.505252 115.079382,188.272993 124.992188,208.326172 C136.799324,232.2115 158.520566,259.657211 176.232422,291.722656 C170.850318,270.972715 148.89919,235.595527 134.259766,200.662109 C125.502777,179.765692 117.650831,156.101163 110.509766,129.6875 C98.0449219,83.5820312 77.609375,72.8027344 46.7871094,44.5820312 Z" id="Combined-Shape" fill="#96C6A7"></path>
            <path d="M158.124408,188.545398 C161.852927,191.337577 169.630151,196.395326 163.029297,191.839355 C154.885254,186.218262 152.851074,177.70752 151.446777,175.356445 C150.04248,173.005371 151.446777,168.473633 151.446777,164.737793 C151.446777,161.001953 148.780762,161.533203 148.780762,163.371582 C148.780762,165.209961 148.331543,171.086426 148.780762,173.665527 C149.190265,176.016607 154.342683,184.142854 156.024714,186.574124 C154.771902,185.311917 153.714993,184.059202 152.949219,182.853516 C148.359375,175.626953 143.769531,164.859375 148.359375,153.507812 C148.726056,152.600941 149.229458,151.146099 149.847873,149.229277 C160.282208,153.38424 166.088776,155.526239 167.267578,155.655273 C169.373047,155.885742 169.986328,146.765625 168.626953,146.292969 C167.707366,145.973227 159.218683,142.882724 152.559609,140.393795 C153.192728,138.264575 153.873391,135.943596 154.593086,133.464579 C165.562545,137.13012 171.698183,138.962891 173,138.962891 C175.250977,138.962891 175.333984,131.554687 174.166992,131.166016 C173.281302,130.871033 163.690815,128.356959 156.683604,126.206634 C157.361751,123.836259 158.063174,121.371127 158.782375,118.833008 C170.386924,121.279622 176.561354,122.50293 177.305664,122.50293 C178.553711,122.50293 180.772461,115.974609 179.683594,115.600586 C178.772033,115.287467 167.282117,112.730143 160.935558,111.207147 C161.746674,108.325426 162.572357,105.383 163.405616,102.407553 C176.550296,104.592595 183.140677,105.364296 183.176758,104.722656 C183.235352,103.680664 181.666992,98.5478516 179.511719,97.2167969 C178.031837,96.3028509 171.16326,94.7645823 165.787003,93.8902454 C166.382198,91.758633 166.977872,89.623614 167.571552,87.49499 C175.778665,88.0191633 180.39544,88.28125 181.421875,88.28125 C183.352539,88.28125 188.524414,82.1640625 188.404297,80.9804687 C188.33686,80.3159681 182.171052,79.6957924 169.906874,79.1199416 C170.628986,76.5303614 171.343057,73.9703343 172.044411,71.4583807 C184.550866,72.1249084 191.208589,72.0434039 192.017578,71.2138672 C193.363281,69.8339844 193.115234,63.4667969 192.017578,63.4667969 C191.184422,63.4667969 180.774801,63.4667969 174.278843,63.4667969 C174.991797,60.921383 175.684492,58.453598 176.351249,56.0859375 C187.854906,56.0859375 194.211456,56.0859375 195.420898,56.0859375 C197.417969,56.0859375 197.754883,53.9726562 198.759766,52.8984375 C199.764648,51.8242187 198.759766,47.9951172 197.754883,47.9951172 C197.018214,47.9951172 186.007602,47.9951172 178.640711,47.9951172 C179.65687,44.4254823 180.577694,41.2258688 181.375023,38.5078125 C193.176658,38.5078125 199.624567,38.5078125 200.71875,38.5078125 C202.569336,38.5078125 204.195312,31.8706055 202.457031,31.2919922 C201.086353,30.8357411 192.1184,31.0990209 183.403921,31.7981474 C183.555484,31.3227096 183.693869,30.898813 183.818359,30.5292969 C188.303928,17.2150762 197.999285,3.89086236 210.908067,0.887608602 C210.496472,1.16704113 210.142483,1.48510389 209.846099,1.84179687 C207.547271,4.60839844 201.666992,9.65429687 201.791992,11.1230469 C201.916992,12.5917969 204.790039,13.3408203 207.073242,11.1230469 C208.536217,9.70199652 212.285479,6.03916336 218.32103,0.134547404 C220.020588,0.0913320753 221.889834,0.092810991 223.889508,0.13831607 C220.47775,3.63372806 215.212384,8.50431333 215.007812,9.62792969 C214.746094,11.0654297 213.138672,17.7880859 217.572266,13.7080078 C220.165134,11.321884 224.708907,6.90795076 231.203586,0.466208036 C233.82541,0.63581246 236.563713,0.864333669 239.356101,1.1507099 C238.303454,1.8549327 237.395002,2.47585944 236.748047,2.80566406 C235.150391,3.62011719 230.646484,6.97753906 230.365234,9.68261719 C230.083984,12.3876953 230.364258,15.0927734 234.546875,12.3876953 C238.729492,9.68261719 241.551758,4.83007812 244.558594,4.37109375 C246.158379,4.12689131 248.879967,3.45530935 251.501556,2.73375748 C255.128978,3.31259954 258.698029,3.98469731 262.075821,4.74778938 C258.598808,5.31828375 255.325276,6.05747896 254.024414,6.80175781 C251.290039,8.36621094 246.620117,11.2148437 246.495117,12.8378906 C246.370117,14.4609375 246.118164,18.6279297 251.886719,16.4941406 C257.655273,14.3603516 258.241211,10.3922838 261.804688,10.3922838 C263.633203,10.3922838 268.275533,9.88457842 275.73168,8.86916772 C277.375611,9.55435804 278.847023,10.2778747 280.107422,11.0390625 C293.638672,19.2109375 314.28125,37.09375 322.625,48.5371094 C329.992221,58.6411696 328.180596,75.9491314 325.964259,83.2596042 C322.794101,80.4972316 318.51013,76.9804878 316.755859,75.5546875 C314.168945,73.4521484 301.96875,66.4033203 297.432617,63.8378906 C292.896484,61.2724609 293.219727,69.0449219 294.322266,70.3085937 C295.424805,71.5722656 308.003906,79.3779297 309.923828,79.8447266 C311.84375,80.3115234 320.592773,86.3789062 322.542969,88.4511719 C322.856074,88.7838756 323.292851,89.0097477 323.797634,89.1459401 C323.175362,91.0245873 322.374443,93.5474367 321.435766,96.5686274 C319.657813,95.4922171 316.89522,93.9308197 313.504883,91.3759766 C308.301758,87.4550781 295.546875,81.7021484 292.583984,79.7597656 C289.621094,77.8173828 285.838867,83.8310547 289.408203,86.0224609 C292.324814,87.8131243 311.548589,99.3786968 319.280116,103.582379 C318.665211,105.600143 318.016875,107.73929 317.342035,109.975106 C315.981613,109.628784 314.691358,109.293831 314.136719,109.186523 C312.879883,108.943359 291.578125,97.1230469 288.178711,95.5810547 C284.779297,94.0390625 284.157227,101.413086 286.589844,102.390625 C289.022461,103.368164 310.870117,114.879883 312.40332,115.369141 C313.158336,115.610072 314.130039,116.450861 315.147466,117.27296 C314.458877,119.570139 313.752799,121.931636 313.035226,124.336071 C312.185538,124.319098 311.344684,124.296756 310.650391,124.274414 C308.647461,124.209961 285.037109,112.700195 281.78125,110.944336 C278.525391,109.188477 278.614258,117.466797 279.889648,118.108398 C281.165039,118.75 305.65625,129.550781 307.393555,129.931641 C308.271752,130.124163 309.411214,131.430862 310.549065,132.681925 C309.890489,134.896174 309.22817,137.125318 308.566403,139.354039 C307.245504,139.379237 305.961886,139.363157 305.355469,139.224609 C303.983398,138.911133 283.5,128.458008 279.094727,126.290039 C274.689453,124.12207 273.49707,132.430664 276.970703,134.036133 C280.444336,135.641602 301.538086,144.077148 303.710938,144.455078 C304.617927,144.612833 305.593489,145.40935 306.509848,146.283878 C305.916891,148.282725 305.328032,150.268217 304.746444,152.229041 C302.839262,152.051665 300.966465,152.281467 297.799805,151.417969 C293.677734,150.293945 279.49707,145.386719 275.294922,143.470703 C271.092773,141.554687 270.098633,148.977539 272.969727,150.145508 C275.84082,151.313477 294.5625,158.198242 296.794922,158.701172 C298.105844,158.996502 300.291629,160.252902 302.132992,161.036932 C301.482883,163.226484 300.849617,165.357711 300.238381,167.412109 C299.250441,167.412109 298.416749,167.412109 297.737305,167.412109 C294.549805,167.412109 279.691406,161.507812 272.175781,159.539062 C264.660156,157.570312 265.995117,165.074219 268.425781,166.28125 C270.856445,167.488281 285.68457,171.680664 292.073242,173.31543 C294.706498,173.989241 296.454806,174.756789 297.823856,175.50832 C296.922261,178.522191 296.102327,181.249667 295.388233,183.604498 C295.357527,183.604492 295.328031,183.604492 295.299805,183.604492 C294.098633,183.604492 270.672852,175.707031 267.018555,174.060547 C263.364258,172.414062 256.797852,177.725586 262.873047,180.000977 C267.518915,181.74103 284.764424,187.33659 293.367564,190.162356 C292.961533,191.442065 292.67169,192.311575 292.517578,192.701172 C290.390625,198.078125 287.560325,209.48169 272.791016,212.212891 C260.141276,226.142578 248.238281,250.372396 237.082031,284.902344 L237.082031,341.779297 L202.552734,372.261719 L175.505859,353.654297 L175.505859,264.011719 C181.047526,230.584635 183.818359,211.8125 183.818359,207.695312 C183.818359,201.519531 182.591797,204.042969 177.589844,201.519531 C173.856335,199.636012 164.525428,194.191007 158.124408,188.545398 Z M213.635742,32.1005859 C209.986328,32.1943359 209.492188,40.2353516 213.635742,40.1435547 C217.779297,40.0517578 239.9375,43.7998047 246.21582,45.3398438 C252.494141,46.8798828 279.259766,61.1513672 282.28125,61.4707031 C285.302734,61.7900391 284.425781,56.21875 283.353516,54.9921875 C282.28125,53.765625 255.089844,39.7851562 248.380859,37.2080078 C241.671875,34.6308594 217.285156,32.0068359 213.635742,32.1005859 Z M211.578125,48.3662109 C206.475586,48.3662109 205.956055,56.5068359 208.606445,56.8427734 C211.256836,57.1787109 232.40332,60.7509766 238.738281,61.6425781 C245.073242,62.5341797 272.652344,77.2402344 276.217773,77.4306641 C279.783203,77.6210937 282.754883,73.2509766 279.486328,71.5068359 C276.217773,69.7626953 246.645508,55.3701172 241.933594,53.6132812 C237.22168,51.8564453 216.680664,48.3662109 211.578125,48.3662109 Z M207.811523,66.2333984 C201.556641,66.2333984 202.947266,74.6582031 207.811523,74.7177734 C212.675781,74.7773437 237.109375,80.5387483 241.290565,81.8935547 C245.471754,83.248361 268.779297,94.2119141 271.405273,94.8037109 C274.03125,95.3955078 276.086914,89.3105469 273.746094,87.8818359 C271.405273,86.453125 246.277344,75.0234375 242.568359,73.1884766 C238.859375,71.3535156 214.066406,66.2333984 207.811523,66.2333984 Z M201.774414,82.5224609 C194.232422,82.5224609 203.19043,92.5673828 205.077148,92.7724609 C206.963867,92.9775391 219.417969,95.6533203 226.681641,97.4449488 C233.945313,99.2365773 261.118164,109.813477 265.336914,111.990234 C269.555664,114.166992 273.02832,106.299805 269.182617,104.283203 C265.336914,102.266602 234.71875,90.0898437 228.455078,88.0351562 C222.191406,85.9804687 209.316406,82.5224609 201.774414,82.5224609 Z M204.336914,101.242187 C199.835938,100.099609 189.615234,106.108398 192.356445,107.25293 C195.097656,108.397461 217.785156,113.250977 222.486328,114.690005 C227.1875,116.129033 258.390625,127.682617 260.649414,128.116211 C262.908203,128.549805 267.557617,122.333008 264.103516,120.782227 C260.649414,119.231445 241.902344,111.870117 237.389648,110.176758 C232.876953,108.483398 208.837891,102.384766 204.336914,101.242187 Z M193.238281,117.128906 C188.137695,117.128906 186.207031,124.307617 188.404297,124.629883 C190.601562,124.952148 211.040039,129.34375 217.079102,131.078204 C223.118164,132.812658 250.493164,142.926758 255.200195,144.762695 C259.907227,146.598633 260.93457,138.302734 259.456055,137.844727 C257.977539,137.386719 234.524414,128.149414 231.879883,127.313477 C229.235352,126.477539 198.338867,117.128906 193.238281,117.128906 Z M186.216797,133.722656 C180.569336,133.722656 182.311523,141.257812 183.511719,142.469727 C184.711914,143.681641 209.953125,147.421315 215.072266,149.9375 C220.191406,152.453685 246.431641,159.374023 251.277344,160.929687 C256.123047,162.485352 256.585938,154.009766 253.931641,153.384766 C251.277344,152.759766 225.811523,144.061523 220.509766,142.469727 C215.208008,140.87793 191.864258,133.722656 186.216797,133.722656 Z M182.165039,151.082031 C175.450195,148.77832 177.450195,157.832031 179.544922,158.635742 C181.639648,159.439453 207.023438,166.352539 212.255859,168.196289 C217.488281,170.040039 242.87207,175.707031 246.704102,176.833008 C250.536133,177.958984 251.750977,171.821289 250.374023,170.65332 C248.99707,169.485352 226.145508,164.152344 220.21875,162.56543 C214.291992,160.978516 188.879883,153.385742 182.165039,151.082031 Z M160.452637,167.079102 C160.452637,163.385742 155.903809,163.06543 155.571777,167.953125 C155.239746,172.84082 155.571777,178.757324 158.952637,185.258301 C162.333496,191.759277 171.088379,196.74707 166.625977,193.013672 C162.163574,189.280273 162.138672,184.791992 160.452637,181.030273 C158.766602,177.268555 160.452637,170.772461 160.452637,167.079102 Z M172.384766,172.121094 C172.384766,164.984863 166.862305,166.376953 166.164062,170.350098 C165.46582,174.323242 165.502441,177.023438 165.502441,181.20166 C165.502441,185.379883 169.510254,195.553223 172.384766,198.08252 C175.259277,200.611816 187.54541,204.686523 184.174805,202.752441 C180.804199,200.818359 176.792969,197.678711 173.848633,192.51123 C170.904297,187.34375 172.384766,179.257324 172.384766,172.121094 Z M185.645996,175.550781 C185.645996,169.369141 179.369629,171.179688 178.992187,175.550781 C178.614746,179.921875 177.782227,183.865025 180.121582,192.256976 C182.460938,200.648926 192.684082,206.391113 197.545898,209.929687 C202.407715,213.468262 206.287598,213.187012 202.867676,211.147949 C199.447754,209.108887 190.084961,198.856934 187.120117,193.977539 C184.155273,189.098145 185.645996,181.732422 185.645996,175.550781 Z M201.788574,182.357422 C201.788574,176.15332 193.67041,175.823242 193.67041,182.357422 C193.67041,188.891602 195.765625,196.125977 200.084961,201.561035 C204.404297,206.996094 207.079102,209.708008 215.554687,214.052246 C224.030273,218.396484 225.229004,215.501953 218.631836,212.585938 C212.034668,209.669922 206.597656,201.812012 204.001953,197.61377 C201.40625,193.415527 201.788574,188.561523 201.788574,182.357422 Z" id="Combined-Shape" fill="#707070"></path>
        </g>
    </g>
</svg>