<svg width="620" height="162" xmlns="http://www.w3.org/2000/svg"><g fill="none" fill-rule="evenodd"><path d="M96 81.3C84.2 97.5 66 113 49 98.2 34.2 80 51.6 36.9 72.8 22c5.2-3.7 16.9-8.8 21.4-3.1 2 2.6.6 6.8-2.4 9.3-2.8 2.3-4.8-1.2-2.6-3 2.2-1.5 1.8-3-.2-3.6C78.6 19.1 66 42.2 58.8 61c-7 18.4-9.4 36.7 2 38.4 14.9 2.3 29-14.4 36.8-28.9C100.3 62 106 54.8 114 56c3 .5 5.9 2.3 7.7 4.6.9-2.3 1.6-3.8 4.6-3.8 2 0 4.5 1.9 4.5 3.9 0 5.7-10.1 33.9-6.5 33.9 5.4 0 19.5-18.5 21-24.7a3 3 0 0 1 .8-1.5c1.6-4.1 3.3-10.4 3.8-15.4-1.9-.9-4.7-2.6-6.5-4.7-2.9-3.4-1.7-9 3.2-9 4.5 0 7.2 2.2 8.1 6 .3 1.4.5 3.2.4 5.6 18.6 9.4 12.5 19.2 7.5 37-2.3 8.2-4.4 16.9-3 17.5 4.1 1.2 18.3-25 22.9-33.7 2.4-8.8 7.9-17.2 14.8-18.6 3.5-.6 7.7.7 9.6 3.6 3.2-13.3 17-59.5 37.5-56 10.2 1.7 10.6 20 .1 35.3-7.7 11.3-19.2 21.4-29 23.5-.9 3.5-7.9 37.7-1.9 37.7 3.4 0 13.9-19.8 17.2-26.5 2.6-8.6 8.4-16 16.3-14.7 3.1.5 6 2.3 7.8 4.6.8-2.3 1.5-3.8 4.5-3.8 2.1 0 4.5 1.9 4.5 3.9 0 5.7-10 33.9-6.5 33.9 5 0 17.3-15.6 20.4-23l2-8.6c1.7-4.5 10.7-2.6 10.6 2l-4 15A63.3 63.3 0 0 1 297 61.9c3.2-2.6 7-1.4 8.2 2.5 1.2 3.8 0 9.3-.8 12.4 2.5-5.8 7.6-21 15.2-21 3.7 0 6.7 3.4 5.6 10.6-.6 2.9-9.3 28.5-5.5 28.5 5.7 0 19-20.5 20.7-26.1.2-.4.5-.8.8-1 2.8-4.8 7.3-8.2 13.5-8.4 1.9-3.2 5.1-4.3 8.7-2.3 5 3.3 6.5 15.7 5.4 21.2 2.3.3 9.4-3.1 11.4-8L383 59c2-4.9 9.3-2.7 9.4 1 .3 3-1.4 13.2-2.4 16.3 2.2-6.2 5.7-20.5 13.1-20.5 15.3 0-2.8 39.1 3.7 39.1 4.7 0 12.3-14.2 15.6-22.2A44.4 44.4 0 0 1 424 68c3.7-8 11.3-16.8 18.3-16.8 3.8 0 7.3 2.1 9.6 7.5l-.1-.1c1.4 2.2-3 4.7-4.3 1.8-1.4-2.7-2.3-3.9-3.3-3.9-1.5 0-3.6 2.2-5.4 5.1-3.7 6-7.4 16.7-7.8 25.1-.1 2.3.3 10.7 4 10.7 1.7 0 4.2-1.5 6.4-3.4 6.7-5.7 11-14.6 15-23.3 4.2-24.4 15.8-57 29.6-65.3 20.4-12.3 25 12.2 11.6 32.1-7.8 11.3-19.3 21.4-29.2 23.5-1.2 5.1-2.1 10.5-3 15.7 2-5.9 5-12.2 12.2-12.2 16.4 0 2.1 35.2 5.8 35 5.7-.6 15.7-19.4 19.4-28.2 2.5-8.8 8.4-16.5 16.4-15.2 3.1.5 6 2.3 7.8 4.6.8-2.3 1.5-3.8 4.5-3.8 2.1 0 4.5 1.9 4.5 3.9 0 5.7-10 33.9-6.5 33.9 5.1 0 17.7-16.2 20.6-23.4l2.4-9.3c.8-3 1.3-4.7 4.5-4.7 2.1 0 4.6 1.8 4.7 3.8.5 5.8-8.4 34-4.8 34 5.7 0 19.4-20.9 21.2-26.5.4-1.2 1.8-1.8 3.2-1.3 1.2.5 2 2 1.6 3.2-2.8 8-17.6 31.8-27 30.2-6.6-1.2-8.2-8.2-7.8-16.1-6 8.3-14.2 16.7-20 15.7-5.4-1-7.2-6-7.2-12.1-3.6 5.7-8.4 9.3-14 6-3-1.6-4.8-5.2-5.3-9.7-5.9 9.5-13.8 18.8-19.7 19.1-11.8.6-1.9-33.6-7.3-34-3.7-.2-8.9 24.3-14.9 24.9-2.9.3-4.8-3.7-4.9-8.8l.1-1.6c-2.8 4.9-6 9.5-10 13.3a16 16 0 0 1-11.7 4.8c-8.3-.9-11.8-6.7-12.6-13.6-4.2 7-9.5 12.8-14.5 12-15-2.6-7.4-29-6.3-37.8-4.3 10.3-7.9 20.5-11.7 30.6-1.3 3.3-3.8 5-6.3 5-2.6 0-4.9-1.7-5.8-5.6l2.3-13.2a15.3 15.3 0 0 1-10.4 3c-2.5 7.6-8 12.3-13.8 13.6-9.6 2-14.9-4.3-16-12.3-5.8 8.8-13.7 17.7-19.6 16.7-14.8-2.6-4.8-29-2.8-37.8-5.3 10.3-8.8 20.6-13.5 30.7-1.6 3.3-4.4 5-6.8 5-2.6 0-4.8-1.7-5.3-5.5-.2-2.2.7-5.2 1.6-8 1.2-4 2.8-9 3.6-13-2.9 6-7.9 23.1-13.8 24-5.3.8-6.7-3-6.5-8l.2-2.5c-5.8 8-13.7 15.8-19.3 14.8-5.4-1-7.2-6-7.2-12.1-3.6 5.7-8.4 9.3-14 6-3.4-1.7-5-5.9-5.5-10.9-4.1 7.5-8.9 15-13.5 18-3.8 2.3-6.5.8-9-2.6a32 32 0 0 1-3.4-18c-3.3 6.6-8 12-13.9 12-4.5 0-7-2.9-8-7.2-6.4 13.3-16.2 30.3-23.8 29.5a6.2 6.2 0 0 1-5-2.8c-10.2-15.6 14.3-52 2-56.8-.9 5.4-2.9 12-4.8 16.4-2.5 8.3-18 30-27 28.5-5.5-1-7.3-6-7.3-12.1-3.5 5.7-8.4 9.3-14 6-3.7-2-5.5-7-5.5-12.8zm464.5-40.2c3 0 5.5 2.4 5.5 5.3 0 3-2.6 5.4-5.5 5.4-3.3 0-5.8-2.4-5.8-5.4 0-2.9 2.5-5.3 5.8-5.3z" fill="#88c9a4"/><path d="M191.6 87.4c-3.6-5.6 4.1-36.2 14.2-27.7-2.4 12.6-11.9 27.9-14.2 27.7zm25-34c2.3-9.8 13.2-47.1 26.5-45.7 6.5.7 6.4 14.4-2.4 26a60.3 60.3 0 0 1-24.2 19.7zm35.8 14.7c-1 3.2-9.6 21.5-11.6 21.9-4.6 1-.7-31 8.7-29.6 2.7.4 3.6 5.4 2.9 7.7zm110.7 13.6c-1.3 3.9-5 10.3-9.7 10.3-7.3 0-7.2-20.7.3-26.7 0 6.8 3.3 14.7 9.4 16.4zm-4.4-17.1c.1-2.3.8-5 2-4.4 3.1 2.1 4 8.6 3.9 14.1-.1 1.3-.2 2.6-.5 3.8-3.7-1.5-5.6-8.7-5.4-13.5zm110.8-9.7c2-7.6 10-35.5 19.8-43 12.9-9.9 15.6 8.4 4.5 23.3A60 60 0 0 1 469.5 55zM524.6 68c-1 3.2-9.6 21.5-11.6 21.9-4.6 1-.7-31 8.7-29.6 2.7.4 3.6 5.4 3 7.7zm-405.4 0c-1 3.2-9.5 21.5-11.5 21.9-4.7 1-.8-31 8.7-29.6 2.6.4 3.6 5.4 2.8 7.7zM66.7 44.3c3.3-6.6 17.6-29 23.1-21.9 3.6 4.5 1.6 9.1-3.2 13-4.2 3.3-10.8 5.6-19.9 9z" fill="#FFF"/><path d="M1 127.7c12.6-.2 25.2-.3 37.7-.7 9.4-.4 18.6-.6 28-.6 20.2-.1 40.4.3 60.6.1 15.6-.2 31-.7 46.7-1.2 40.7-1 82-2.9 122.6-3.5 131.6-2 14.6.3 107 1.5 71.9 1 142.9-1 216 1.3" stroke="#9CA59F" stroke-width="1.5"/><path fill="#FFF" fill-rule="nonzero" d="M175 102h270v60H175z"/><path d="M193.2 149.5c-.7 0-1-.3-1.3-1l-.6-2.2a90.8 90.8 0 0 1-3-12.7l-1.3-5.8-.5.3-.7.3.1 19.2v.8c0 .6-.2 1-.8 1-.3 0-.5-.1-.7-.3a.8.8 0 0 1-.3-.6v-.7l.2-10.1v-4.9l.3-14.9v-6.4c0-.4.2-.5.8-.5 1 0 1.7.2 2.5.7a5 5 0 0 1 1.8 1.9c.9 1.6 1.3 3.4 1.3 5.4a14.5 14.5 0 0 1-1.8 6.7l-.8 1.3c.8 2.6 1.8 6.5 3.1 11.9l2.3 9 .1.5c0 .3 0 .6-.2.8 0 .2-.3.3-.5.3zm-7.4-22.8c.3 0 .7-.3 1.3-1 .7-.6 1.1-1.1 1.4-1.6l.6-2 .3-2.5c0-1.4-.3-2.8-.8-4.2a5 5 0 0 0-1-2 2 2 0 0 0-1.5-.9h-.2l-.1.1v14.1zm19.3 23.3c-4.6 0-6.9-8-6.9-24v-2a46.5 46.5 0 0 1 1.3-10.5c.4-.8.8-1.5 1.4-2a3 3 0 0 1 2.3-.8 5 5 0 0 1 3.8 1.7c.4.4.7 1 1 1.8l.7 2.2.4 2.3c.8 5.8 1.2 10.8 1.2 15.2v.1a97.2 97.2 0 0 1-.7 9.9 11.5 11.5 0 0 1-1.5 4.3c-.7 1.3-1.7 1.9-3 1.9zm.2-1.3c.5 0 1-.4 1.4-1a7 7 0 0 0 1-2.5 42 42 0 0 0 1.1-12.1v-5.2a93 93 0 0 0-.7-7c-.2-2-.8-4.2-1.6-6.3-.3-.8-.8-1.5-1.3-2-.6-.4-1.2-.6-1.8-.6-.6 0-1 .2-1.5.8-.4.5-.8 1.2-1 2.2-.7 2.2-1 4.3-1 6.2-.2 1.6-.2 3.3-.2 5v2.5a70.4 70.4 0 0 0 1.7 14.2c.4 1.6.9 2.9 1.5 4 .7 1.2 1.5 1.8 2.3 1.8zm18.3 1.1c-.9 0-1.9-.4-2.9-1.1-1-.7-1.8-1.6-2.2-2.5a127.3 127.3 0 0 1-1.8-18.6V125a59.1 59.1 0 0 1 .2-7.7c.1-.9.3-1.6.5-2.2.2-.6.5-1.2 1-1.7a5.3 5.3 0 0 1 3.3-2.3c.7-.2 1.6-.3 2.5-.3.6 0 1.3.2 2 .6.6.3.9.7.9 1.3 0 .3-.3.5-.8.5l-1.2-.3c-.5-.3-.9-.4-1.3-.4-1 0-1.8.2-2.5.6-.8.4-1.4.9-1.8 1.5-.4.5-.7 1.3-1 2.2-.2 1-.4 1.9-.4 2.8-.2.8-.2 1.8-.2 3v2.8l.1 2.6a106.2 106.2 0 0 0 2 17.9c.5.6 1 1.1 1.8 1.5.8.3 1.6.5 2.5.5 1.5 0 2.7-.5 3.5-1.5.3-.4.6-.6 1-.6.3 0 .4.2.4.7 0 .6-.2 1.1-.5 1.6-.4.4-1 .8-1.5 1-1.1.5-2.3.7-3.5.7zm21 0c-.4 0-.5-.1-.7-.3l-1.2-4.2-1.7-6.2c-1.8-6.3-3-10.2-3.6-11.7l-.3-.8-.1.3-.4.6-1 1.7-.8 1.2V148l-.1 1.2c-.1.2-.3.3-.6.3-.4 0-.6 0-.7-.3a3 3 0 0 1-.2-1.3v-15c0-2 0-5.2.2-9.7v-9.6c0-.6 0-1.2.2-1.7 0-.4.2-.6.5-.6.5 0 .8.1.9.3l.2 1.8-.1 8.3-.1 6.1 2.8-6.3 1.8-4.7c1.9-4.6 3-6.9 3.6-6.9.2 0 .4 0 .6.2l.2.5c-.1.7-.4 1.3-.8 2l-.5 1a667.7 667.7 0 0 0-4.6 11.6 132 132 0 0 1 4.3 12.8 6366 6366 0 0 1 3 11c0 .2 0 .4-.2.5a1 1 0 0 1-.6.2zm5.3-30.8c-.2-.1-.2-.4-.2-.7 0-1 .4-2.7 1.2-5.3.5-1.6 1-2.4 1.3-2.4h.2c.2 0 .3 0 .4.2.2.2.3.3.3.6v1.3l-.3 1.3-.3.8c-.3 1-.7 2.1-1.4 3.6-.3.5-.6.8-.9.8-.1 0-.2 0-.3-.2zm18.8 30.6c-.2 0-.4-.2-.6-.4l-.4-.8-.1-1-.2-.7a996.9 996.9 0 0 1-6.1-22.5c-.4-1.2-1-4.5-2.1-10V141.5l.2 7.1-.3.4h-1.2l-.1-.4v-10.7l-.1-8.7v-11.3a199.1 199.1 0 0 1-.1-5.2v-.5c0-.5.1-.7.3-.9l1-.2c.3 0 .5.1.7.3.3.2.4.4.5.7l1 4.9 1.3 5.3a1014.3 1014.3 0 0 0 6.2 23 7 7 0 0 0 .3-2.3v-8.7l.2-8.7v-14.8c.1-.5.5-.7 1-.7.3 0 .4.4.4 1.4v1a4.6 4.6 0 0 1-.1.9v3.2a1246.5 1246.5 0 0 1-.3 27.6v3.9c0 1-.5 1.5-1.4 1.5zm9.5-30.6l-.1-.7c0-1 .3-2.7 1.1-5.3.6-1.6 1-2.4 1.4-2.4h.1c.2 0 .4 0 .5.2l.3.6-.1 1.3-.3 1.3-.2.8-1.4 3.6c-.4.5-.6.8-1 .8 0 0-.2 0-.3-.2zm17.5 30.5c-.7 0-1-.3-1.3-1l-.5-2.2a90.8 90.8 0 0 1-3.1-12.7l-1.3-5.8-.5.3-.6.3v20c0 .6-.2 1-.8 1-.3 0-.5-.1-.7-.3a.8.8 0 0 1-.3-.6v-.7l.1-10.1.2-4.9.2-14.9v-6.4c0-.4.2-.5.8-.5 1 0 1.7.2 2.5.7a5 5 0 0 1 1.8 1.9c.9 1.6 1.3 3.4 1.3 5.4a14.5 14.5 0 0 1-1.8 6.7l-.8 1.3c.8 2.6 1.8 6.5 3.1 11.9l2.4 9v.5c0 .3 0 .6-.2.8 0 .2-.3.3-.5.3zm-7.4-22.8c.3 0 .7-.3 1.3-1 .7-.6 1.1-1.1 1.4-1.6l.6-2 .3-2.5c0-1.4-.3-2.8-.8-4.2a5 5 0 0 0-1-2 2 2 0 0 0-1.6-.9l-.2.1v14.1zm19.3 23.3c-4.6 0-6.9-8-6.9-24v-2a46.5 46.5 0 0 1 1.3-10.5c.4-.8.8-1.5 1.4-2a3 3 0 0 1 2.3-.8 5 5 0 0 1 3.8 1.7c.4.4.7 1 1 1.8l.7 2.2.4 2.3c.8 5.8 1.2 10.8 1.2 15.2v.1a97.2 97.2 0 0 1-.7 9.9 11.5 11.5 0 0 1-1.5 4.3c-.7 1.3-1.7 1.9-3 1.9zm.1-1.3c.6 0 1-.4 1.5-1a7 7 0 0 0 1-2.5 42 42 0 0 0 1.1-12.1v-5.2a93 93 0 0 0-.7-7c-.2-2-.8-4.2-1.6-6.3-.3-.8-.8-1.5-1.3-2-.6-.4-1.2-.6-1.8-.6-.6 0-1 .2-1.5.8-.4.5-.8 1.2-1 2.2-.7 2.2-1 4.3-1 6.2l-.2 5v2.5a70.4 70.4 0 0 0 1.7 14.2c.4 1.6.9 2.9 1.6 4 .6 1.2 1.4 1.8 2.3 1.8zm13.6.6a.7.7 0 0 1-.6-.3c-.2-.2-.3-.4-.3-.8v-2c0-2 0-4.4-.2-7l-.2-7.1a398.3 398.3 0 0 0-.6-21l.3-.4.5-.1c.6 0 .9.2.9.7l.1 13.9.3 8.9.3 6.9.3 6.2.1.1h3.8c.4 0 .6.3.6 1l-.1.6c-.1.2-.2.3-.4.3h-.8l-4 .1zm12.3 0a.7.7 0 0 1-.6-.3l-.2-.8v-2c0-2 0-4.4-.3-7l-.1-7.1a398.3 398.3 0 0 0-.6-21c0-.1 0-.3.2-.4l.6-.1c.6 0 .8.2.8.7l.2 13.9.3 8.9c0 1.4 0 3.7.3 6.9l.3 6.2.1.1H338.4c.4 0 .6.3.6 1l-.1.6c-.1.2-.3.3-.5.3h-.8l-4 .1zm24.3.1a4 4 0 0 1-.6-.1c-.6-2.5-1.3-6.2-2-11.1l-2.8-17.9-.4-2.2c-.7-2.8-1.1-4.8-1.1-6 0-.2 0-.4.2-.6.2-.2.3-.3.5-.3l.4.1c.1 0 .3.2.4.5l.2.8.1.7.7 3.8.4 2.7 2.6 17.1.6 4.8.6 4.5.4-3.5.5-5.8L360 126l.6-6.1.3-2.6.3-2.5.3-2.8c.1-.6.4-1 1-1l.3.2h-.1l.5.4c0 1-.1 2.4-.4 4.3l-.3 2-.1 1.2a1215.9 1215.9 0 0 0-3.3 29.2c-.3.8-.6 1.1-1 1.1h-.1zm-.1-2.9v-.1l-.2.1h.2zm13.4 2.8c-.8 0-1.3 0-1.6-.2-.3-.2-.5-.5-.5-.9v-1-28.9c0-2.1 0-4-.2-5.6 0-.4.1-.7.3-1 .2-.2.4-.4.7-.4h3l1.1.1c.3.2.5.4.5.9 0 .3-.1.5-.3.6l-.6.3h-3l-.1.5v14.8l.1.1h.1l2.8-.1c.5 0 .8.2.8.7l-.2.7-.6.1h-2.9s-.2.1-.2.3l.2 7.4v9.8h4.8c.6 0 .9.2.9.6 0 .6-.2.9-.5 1l-2.4.2h-2.1zm17.2.5c-2.5 0-4.3-1.8-5.5-5.4a57.4 57.4 0 0 1-1.8-21.2 28 28 0 0 1 1.4-7.3l1-2a6.2 6.2 0 0 1 5.5-3.3c1 0 1.5.3 1.5.9 0 .4-.2.6-.8.6a3 3 0 0 1-.6-.2h-.8c-1 0-2 .4-2.8 1.3-.6.7-1.1 1.8-1.6 3.4a81 81 0 0 0-1 8.8l-.2 3.4v2.7c0 3.3.3 6.2.8 8.9.3 1.7.7 3 1.1 4.1.5 1.2 1 2 1.8 2.7a4 4 0 0 0 2.8 1.2c1.7 0 3.1-.8 4.2-2.5a41 41 0 0 0-.6-5.6c-.2-.6-.4-.8-.7-.8h-1l-1 .2c-.8 0-1.2-.3-1.2-.9 0-.3.5-.5 1.5-.8l2.3-.3c.5 0 1 .2 1.2.6.2.4.4.9.4 1.5l.4 4.5c.4 1.8.6 3.3.6 4.4 0 .5-.3.8-.7.8-.8 0-1.2-.4-1.2-1.1V148.1a10.4 10.4 0 0 1-5 1.7zm22-.8a1 1 0 0 1-.7-.3.8.8 0 0 1-.3-.5v-6.6c0-.4-.8-.8-2.5-1.1-1.8-.3-3.1-.5-4.3-.5l-.3.8a97.2 97.2 0 0 0-1.6 6.6l-.3 1.1c0 .3-.2.4-.4.4-.3 0-.6 0-.8-.2l-.3-.6v-.2l.6-2.5a89.8 89.8 0 0 0 1.8-7.9l1.6-8.2.3-1.7a175.8 175.8 0 0 1 2.7-13.2l.7-2c.3-.6.5-.9.8-.9.5 0 .9.2 1.1.5.2.3.4 2 .8 5l.9 9 .7 8.4c0 1.4 0 3.5.3 6.5l.3 6.5v.2l-.2 1c-.1.3-.4.4-1 .4zm-2-9.6c.6 0 1-.2 1-.6l-.4-8.4a298.9 298.9 0 0 0-1.1-13.3l-.3-2v-.5l-.2-.6c-.2.7-.5 1.7-.7 3a196.1 196.1 0 0 1-2.8 15.8l-.5 1.7c-.5 1.7-.8 3-.8 3.8v.3c1.5.5 3.2.7 5.1.7h.7zm20 10.1c-.2 0-.4 0-.6-.3l-.4-.8-.1-1-.2-.7a996.9 996.9 0 0 1-6.2-22.5l-2-10v27.3l.2 7.1-.4.4h-1.1l-.2-.4.2-2-.1-8.7-.1-8.7v-11.3a199.1 199.1 0 0 1-.1-5.3v-.5c0-.4.1-.6.3-.8l1-.2c.3 0 .5.1.7.3.3.2.4.4.5.6l1 5 1.3 5.2a1014.3 1014.3 0 0 0 6.1 23.1 7 7 0 0 0 .4-2.4v-8.7l.1-8.6.1-4v-10.8c.1-.5.5-.7 1-.7.3 0 .4.4.4 1.4v1a4.6 4.6 0 0 1-.1.8v3.2a1246.5 1246.5 0 0 1-.3 27.7v3.9c0 1-.5 1.5-1.4 1.5z" fill="#9CA59F"/><path d="M111.5 35l-.4-.1a.5.5 0 0 1-.1-.4v-4c0-.2-.5-.4-1.6-.6l-2.5-.3-.2.4a58.4 58.4 0 0 0-1 4l-.1.7c0 .2-.1.2-.3.2l-.4-.1c-.2-.1-.2-.2-.2-.4l.3-1.6a53.9 53.9 0 0 0 1.1-4.7l1-5 .1-1a105.5 105.5 0 0 1 2-9l.5-.6c.4 0 .6.1.7.3l.5 3 .5 5.4.4 5a62.2 62.2 0 0 0 .4 7.8v.8l-.7.2zm-1.2-5.8c.4 0 .6 0 .6-.3a82.9 82.9 0 0 0-.6-10.8l-.3-2.3v-1.1l-.1-.4-.1-.3-.5 1.8-.4 2.8-1.3 6.7-.2 1c-.3 1-.5 1.8-.5 2.3v.2c.9.2 1.9.4 3 .4h.4zm12 6.1s-.2 0-.3-.2a1 1 0 0 1-.2-.5l-.1-.5-.1-.5a177 177 0 0 1-5-19.5v16.4l.2 4.3-.2.2h-.7l-.1-.2V16.3a119.5 119.5 0 0 1 0-3.1v-.3l.1-.5.6-.1.4.1.3.4.6 3 .8 3.1a608.6 608.6 0 0 0 3.7 14l.2-1.5V20.9l.1-2.3V12c0-.2.3-.4.6-.4.2 0 .2.3.2.9v.6a2.8 2.8 0 0 1 0 .5v2a747.9 747.9 0 0 1-.2 16.5v2.4c0 .5-.3.8-.8.8zm11.5 0c-.1 0-.3 0-.4-.2a1 1 0 0 1-.2-.5l-.1-.5-.1-.5a177 177 0 0 1-5-19.5v16.4l.2 4.3-.2.2h-.7l-.1-.2V16.3a119.5 119.5 0 0 1 0-3.1v-.3l.1-.5.6-.1.4.1.3.4.6 3 .8 3.1a608.6 608.6 0 0 0 3.7 14l.2-1.5V20.9l.1-2.3V12c0-.2.3-.4.6-.4.2 0 .2.3.2.9v.6a2.8 2.8 0 0 1 0 .5v2a747.9 747.9 0 0 1-.2 16.5v2.4c0 .5-.3.8-.8.8zm6.7-.1c-.5 0-.9 0-1-.2-.2 0-.3-.2-.3-.5V34 16.6a79.7 79.7 0 0 0 0-4l.4-.2h2.5c.2.1.3.3.3.6 0 .1 0 .3-.2.4l-.4.2h-.5l-1-.1h-.2v9.2h1.7c.3 0 .5.1.5.4 0 .2 0 .4-.2.4l-.3.1h-1.7l-.1.2V34h3c.3 0 .5.1.5.4 0 .3-.1.5-.3.6h-2.7zm12.5 0c-.7 0-1.1-.2-1.1-.4V31l.1-3.8a317.3 317.3 0 0 0-.2-12.5c0-1.5.3-2.2.8-2.2 1.3 0 2.4.4 3.1 1.3.7.9 1.1 2 1.1 3.4 0 1.6-.6 3.3-2 5 1.1 1 1.9 2 2.3 3 .5 1 .7 2.1.7 3.5l-.1 2-.3 1.3a3.6 3.6 0 0 1-1.6 2l-1.5.9-.6.1-.6.2h-.1zm0-13.2c.4 0 .8-.1 1.2-.5.4-.4.8-1 1-1.5a9.4 9.4 0 0 0 .8-3.6 3 3 0 0 0-.7-2c-.6-.6-1.1-.9-1.8-.9-.5 0-.7.4-.7 1.3V22h.2zm.2 12c.7 0 1.3-.2 1.9-.6.6-.4 1-1 1.3-1.6a5 5 0 0 0 .5-2.2c0-3.6-.8-5.8-2.6-6.5-.1 0-.4 0-.7.2l-.7.1.1 10.6h.2zm9.2 1.2c-.1 0-.2 0-.3-.2l-.2-.5v-1.1l-.1-4.3-.1-4.3a239 239 0 0 0-.4-12.5c0-.1 0-.2.2-.3h.3c.3 0 .5 0 .5.4l.1 8.3.2 5.4.1 4 .2 3.8h.1l.4.1h1.9c.2 0 .4.2.4.5l-.1.5-.3.1h-2.9zm10.3.4c-2.8 0-4.2-4.8-4.2-14.4V20a27.9 27.9 0 0 1 .8-6.3c.2-.5.5-.9.9-1.2.3-.3.8-.5 1.3-.5a3 3 0 0 1 2.3 1l.6 1.1.4 1.3.3 1.5c.5 3.4.7 6.4.7 9v.1a58.3 58.3 0 0 1-.4 6 7 7 0 0 1-1 2.5c-.3.8-1 1.1-1.7 1.1zm0-.8c.4 0 .7-.2 1-.6a25.2 25.2 0 0 0 1.3-8.8h-.1v-3c0-1.2-.2-2.6-.4-4.3a16 16 0 0 0-1-3.7 3 3 0 0 0-.8-1.2c-.3-.3-.7-.4-1-.4-.4 0-.7.1-1 .4l-.6 1.4-.6 3.7v4.5a42.2 42.2 0 0 0 1 8.5c.2 1 .5 1.8.9 2.4.4.7.8 1 1.4 1zm11.3.7c-1.5 0-2.6-1.1-3.3-3.3a34.4 34.4 0 0 1-1-12.7 16.8 16.8 0 0 1 .7-4.3l.6-1.3a3.7 3.7 0 0 1 3.3-2c.6 0 1 .3 1 .6 0 .2-.2.4-.5.4l-.4-.1h-.4c-.7 0-1.3.2-1.8.7l-1 2-.4 2.8-.2 2.6v3.6c0 2 .1 3.7.4 5.3.2 1 .4 1.9.7 2.5.3.7.7 1.2 1.1 1.7.5.4 1 .6 1.6.6 1.1 0 2-.5 2.6-1.5a24.6 24.6 0 0 0-.4-3.3c-.1-.4-.2-.5-.4-.5H185c-.5 0-.7 0-.7-.4 0-.2.3-.3.9-.5a6 6 0 0 1 1.4-.2c.3 0 .5.1.7.4l.2.9c0 .4 0 1.3.3 2.6l.3 2.7c0 .3-.1.5-.4.5-.5 0-.7-.2-.7-.7v-.1c-1.1.7-2.1 1-3 1zm11.5 0c-1.5 0-2.6-1.1-3.3-3.3a34.4 34.4 0 0 1-1-12.7 16.8 16.8 0 0 1 .8-4.3l.6-1.3a3.7 3.7 0 0 1 3.3-2c.6 0 .9.3.9.6 0 .2-.2.4-.5.4l-.4-.1h-.4c-.7 0-1.3.2-1.7.7-.4.4-.7 1.1-1 2l-.5 2.8c0 .5 0 1.4-.2 2.6v3.6c0 2 .2 3.7.4 5.3l.7 2.5c.3.7.7 1.2 1.1 1.7.5.4 1 .6 1.7.6 1 0 1.9-.5 2.5-1.5a24.6 24.6 0 0 0-.4-3.3c0-.4-.2-.5-.4-.5h-1.2c-.4 0-.7 0-.7-.4 0-.2.3-.3.9-.5a6 6 0 0 1 1.4-.2c.3 0 .5.1.7.4l.2.9.3 2.6.3 2.7c0 .3-.1.5-.4.5-.5 0-.7-.2-.7-.7v-.1c-1.1.7-2.1 1-3 1zm10.2-.3c-.2 0-.3 0-.4-.2a1 1 0 0 1-.2-.6V24.3l-.1-4.8v-2.9-3.2h-3.4l-.5-.1a.4.4 0 0 1-.2-.4l.1-.3.5-.1 1.2-.1h6.8l.1.5c0 .3-.2.4-.5.4h-3V35l-.4.2z" fill="#6B756E"/></g></svg>